<svg xmlns="http://www.w3.org/2000/svg" width="138.352" height="75.246" viewBox="0 0 138.352 75.246">
    <defs>
        <style>
            .cls-1{fill:#f58b93}.cls-2{fill:#6ad1ea}.cls-3{fill:#3ba0ff}.cls-4{fill:#3c2163}.cls-6{fill:#fff}.cls-8{fill:#7452c6}.cls-9{fill:#f7d979}.cls-11{fill:#705699}
        </style>
    </defs>
    <g id="그룹_520" transform="translate(-174.36 -224.738)">
        <g id="그룹_497" transform="translate(14 -2)">
            <path id="패스_1027" d="M284.885 240.929h-1.969a.851.851 0 0 1 0-1.7h1.969a.851.851 0 0 1 0 1.7z" class="cls-1" transform="translate(0 1.966)"/>
            <path id="패스_1028" d="M288.094 240.929h-1.966a.851.851 0 1 1 0-1.7h1.966a.851.851 0 1 1 0 1.7z" class="cls-1" transform="translate(3.121 1.966)"/>
            <path id="패스_1029" d="M285.1 240.714a.851.851 0 0 1-.851-.851v-1.969a.851.851 0 1 1 1.7 0v1.969a.851.851 0 0 1-.849.851z" class="cls-1" transform="translate(1.965)"/>
            <path id="패스_1030" d="M285.1 243.926a.851.851 0 0 1-.851-.851v-1.969a.851.851 0 0 1 1.7 0v1.969a.851.851 0 0 1-.849.851z" class="cls-1" transform="translate(1.965 3.121)"/>
        </g>
        <g id="그룹_499" transform="translate(-36.591)">
            <g id="그룹_498" transform="translate(210.951 284.139)">
                <path id="패스_1031" d="M214.332 288.364h-2.36a1.021 1.021 0 0 1 0-2.042h2.36a1.021 1.021 0 0 1 0 2.042z" class="cls-2" transform="translate(-210.951 -282.343)"/>
                <path id="패스_1032" d="M217.54 288.364h-2.356a1.021 1.021 0 0 1 0-2.042h2.356a1.021 1.021 0 0 1 0 2.042z" class="cls-2" transform="translate(-208.561 -282.343)"/>
                <path id="패스_1033" d="M214.156 288.537a1.019 1.019 0 0 1-1.021-1.021v-2.356a1.021 1.021 0 0 1 2.042 0v2.356a1.02 1.02 0 0 1-1.021 1.021z" class="cls-2" transform="translate(-209.154 -284.139)"/>
                <path id="패스_1034" d="M214.156 291.752a1.021 1.021 0 0 1-1.021-1.021v-2.36a1.021 1.021 0 0 1 2.042 0v2.36a1.023 1.023 0 0 1-1.021 1.021z" class="cls-2" transform="translate(-209.154 -281.75)"/>
            </g>
            <g id="그룹_521" transform="translate(343.951 272.788)">
                <path id="패스_1031-2" d="M212.761 287.415H211.5a.546.546 0 1 1 0-1.093h1.263a.546.546 0 1 1 0 1.093z" class="cls-3" transform="translate(-210.951 -284.192)"/>
                <path id="패스_1032-2" d="M215.97 287.415h-1.261a.546.546 0 0 1 0-1.093h1.261a.546.546 0 1 1 0 1.093z" class="cls-3" transform="translate(-211.165 -284.192)"/>
                <path id="패스_1033-2" d="M213.681 286.493a.545.545 0 0 1-.546-.546v-1.261a.546.546 0 1 1 1.093 0v1.261a.546.546 0 0 1-.547.546z" class="cls-3" transform="translate(-211.004 -284.139)"/>
                <path id="패스_1034-2" d="M213.681 289.706a.547.547 0 0 1-.546-.546v-1.26a.546.546 0 0 1 1.093 0v1.263a.547.547 0 0 1-.547.543z" class="cls-3" transform="translate(-211.004 -284.353)"/>
            </g>
        </g>
        <path id="패스_1035" d="M249.014 299.984v-1q1 0 1.981-.054l.055 1q-1.012.052-2.036.054zm-2.036-.052c-.681-.035-1.358-.09-2.029-.16l.106-.995q.979.1 1.975.157zm6.1-.169l-.107-.994q.99-.108 1.964-.267l.161.986q-.996.165-2.018.275zm-10.148-.263q-1.009-.162-2-.379l.212-.976q.965.207 1.948.369zm14.166-.395l-.215-.976q.972-.215 1.924-.479l.267.963q-.978.273-1.972.492zm-18.144-.471q-.985-.271-1.948-.6l.318-.948q.938.315 1.9.579zm22.067-.619l-.32-.948q.94-.318 1.86-.684l.371.927q-.944.379-1.911.705zm-25.931-.677c-.634-.252-1.259-.522-1.875-.805l.419-.908q.9.416 1.825.783zm29.709-.832l-.422-.908q.9-.417 1.772-.881l.47.883q-.897.477-1.817.906zm-33.411-.879q-.9-.477-1.776-1l.516-.855c.566.339 1.142.666 1.727.975zm37-1.031l-.518-.856q.849-.513 1.668-1.069l.563.827q-.841.572-1.712 1.102zm-40.494-1.07q-.845-.572-1.655-1.188l.6-.8q.791.6 1.612 1.157zm43.859-1.216l-.608-.8c.528-.4 1.041-.815 1.545-1.242l.647.761c-.515.444-1.044.871-1.583 1.281zm-47.1-1.247q-.777-.66-1.517-1.36l.687-.726q.72.68 1.477 1.322zm50.2-1.391l-.688-.727c.48-.453.947-.922 1.4-1.4l.726.687q-.698.74-1.437 1.44zm-53.162-1.407q-.7-.738-1.362-1.514l.762-.648c.429.5.87.995 1.325 1.473zm55.962-1.548l-.761-.649q.641-.754 1.242-1.545l.8.606q-.62.812-1.28 1.588zm-58.6-1.551q-.616-.807-1.19-1.649l.826-.564q.56.82 1.159 1.607zm61.069-1.691l-.827-.562q.555-.82 1.069-1.671l.858.516q-.529.875-1.101 1.717zm-63.36-1.675q-.525-.87-1-1.769l.882-.471q.468.875.979 1.722zm65.463-1.821l-.883-.468q.465-.876.883-1.779l.908.421q-.431.93-.908 1.831zm-67.376-1.767q-.429-.921-.807-1.866l.928-.373q.369.921.785 1.817zm69.09-1.933l-.929-.371c.245-.612.473-1.235.685-1.864l.948.319q-.327.977-.704 1.921zm-70.6-1.844q-.325-.961-.6-1.946l.963-.268q.267.957.585 1.893zm71.9-2.02l-.965-.266q.264-.951.477-1.924l.977.213q-.216 1.004-.488 1.982zm-73-1.9q-.219-.992-.385-2l.986-.163q.162.984.376 1.947zm73.869-2.076l-.987-.16c.106-.648.194-1.3.266-1.965l.994.108c-.071.678-.162 1.355-.271 2.021zm-74.53-1.941q-.111-1.008-.167-2.03l1-.055q.054.994.163 1.976zm74.966-2.106l-1-.053q.052-.985.053-1.982v-.15h1v.144c.005.692-.015 1.371-.051 2.049zm-75.192-1.961v-.074q0-.987.05-1.959l1 .051q-.048.948-.049 1.908zm74.185-2.2q-.057-.994-.167-1.975l.994-.111q.112 1.007.171 2.029zm-72.981-1.755l-.995-.1q.108-1.019.269-2.02l.987.16q-.155.97-.259 1.96zm72.542-2.184q-.165-.981-.379-1.945l.975-.218q.222.99.39 2zm-71.914-1.728l-.978-.212q.218-1 .486-1.978l.964.265q-.259.952-.47 1.925zm71.05-2.139q-.269-.957-.588-1.893l.946-.322q.327.961.6 1.945zm-70-1.682l-.948-.318q.324-.969.7-1.917l.93.369q-.365.923-.681 1.866zm68.722-2.068q-.37-.921-.789-1.815l.906-.424c.285.613.557 1.235.811 1.865zm-67.254-1.624l-.908-.419q.428-.927.9-1.828l.884.467q-.464.876-.876 1.78zm65.582-1.961q-.467-.873-.981-1.718l.854-.52q.528.868 1.009 1.767zm-63.728-1.547l-.857-.515q.524-.874 1.1-1.718l.828.56q-.563.821-1.075 1.673zm61.673-1.835q-.559-.819-1.163-1.6l.794-.608q.619.807 1.2 1.648zm-59.451-1.451l-.8-.6q.615-.812 1.273-1.589l.764.645q-.641.754-1.241 1.544zm57.041-1.694q-.643-.753-1.329-1.471l.725-.69q.7.738 1.364 1.511zm-54.479-1.332l-.727-.687q.7-.74 1.437-1.442l.689.724q-.723.684-1.403 1.405zm51.744-1.537c-.48-.453-.975-.893-1.479-1.32l.645-.764c.52.439 1.025.891 1.52 1.357zm-48.872-1.2l-.65-.761q.774-.66 1.583-1.279l.608.794q-.791.608-1.545 1.252zm45.845-1.364q-.792-.6-1.616-1.154l.561-.829q.844.572 1.656 1.185zm-42.7-1.043l-.563-.826q.839-.573 1.71-1.1l.519.855q-.85.519-1.669 1.076zm39.41-1.175q-.85-.509-1.731-.973l.467-.885q.9.477 1.777 1zm-36.024-.877l-.471-.882q.9-.48 1.818-.91l.423.906q-.902.425-1.773.891zm32.513-.974q-.9-.414-1.825-.78l.367-.93q.951.375 1.876.8zm-28.928-.7l-.373-.928q.943-.379 1.91-.708l.322.947q-.944.328-1.862.695zm25.236-.76q-.937-.313-1.9-.575l.264-.965q.986.27 1.949.592zm-21.484-.516l-.269-.963q.975-.273 1.975-.5l.217.977q-.974.226-1.926.492zm17.661-.53c-.642-.138-1.293-.26-1.947-.365l.156-.987q1.011.16 2 .375zm-13.793-.329l-.163-.986q1-.167 2.017-.279l.11.994q-.993.115-1.967.277zm9.879-.295c-.652-.068-1.312-.119-1.975-.152l.049-1q1.023.051 2.032.157zm-5.939-.141l-.057-1c.674-.038 1.354-.058 2.035-.06v1q-.998.011-1.981.07z" class="cls-4"/>
        <g id="그룹_500">
            <path id="패스_1036" fill="#8fdae2" d="M219.159 262.361a12.5 12.5 0 1 1-12.5-12.5 12.5 12.5 0 0 1 12.5 12.5z"/>
            <path id="패스_1037" d="M206.654 275.365a13 13 0 1 1 13-13 13.019 13.019 0 0 1-13 13zm0-25.009a12 12 0 1 0 12 12 12.018 12.018 0 0 0-12-12z" class="cls-4"/>
        </g>
        <g id="그룹_502">
            <g id="그룹_501">
                <path id="패스_1038" d="M206.752 264.715a8.092 8.092 0 0 0-8.052 7.3 12.488 12.488 0 0 0 16.082-.158 8.088 8.088 0 0 0-8.03-7.142z" class="cls-6"/>
                <path id="패스_1039" d="M206.654 275.365a13.037 13.037 0 0 1-8.272-2.968.5.5 0 0 1-.179-.436 8.589 8.589 0 0 1 17.076-.168.5.5 0 0 1-.171.438 13 13 0 0 1-8.454 3.134zm-7.426-3.571a11.991 11.991 0 0 0 15.022-.147 7.589 7.589 0 0 0-15.022.147z" class="cls-4"/>
            </g>
        </g>
        <g id="그룹_503">
            <path id="패스_1040" fill="#c3a1f3" d="M273.207 262.359a24.152 24.152 0 1 1-24.15-24.151 24.151 24.151 0 0 1 24.15 24.151z"/>
            <path id="패스_1041" d="M249.057 287.012a24.652 24.652 0 1 1 24.65-24.653 24.681 24.681 0 0 1-24.65 24.653zm0-48.3a23.652 23.652 0 1 0 23.65 23.651 23.679 23.679 0 0 0-23.65-23.655z" class="cls-4"/>
        </g>
        <g id="그룹_504">
            <path id="패스_1042" d="M256.014 262.947h-4.93l.2.8-4.508.02.209-.817h-4.925s-7.3 3.983-10.9 15.629c0 0 4.577 7.321 17.818 7.936a21.586 21.586 0 0 0 18.217-8.2c-4.195-11.655-11.181-15.368-11.181-15.368z" class="cls-6"/>
            <path id="패스_1043" d="M250.041 287.035q-.535 0-1.088-.023c-13.35-.62-18.026-7.862-18.219-8.17a.5.5 0 0 1-.053-.413c3.622-11.706 10.834-15.753 11.14-15.92a.5.5 0 0 1 .239-.062h4.929a.5.5 0 0 1 .485.625l-.048.19 3.218-.016-.044-.174a.5.5 0 0 1 .088-.431.505.505 0 0 1 .4-.194h4.93a.5.5 0 0 1 .234.059c.292.156 7.205 3.937 11.415 15.632a.5.5 0 0 1-.059.453 22.238 22.238 0 0 1-17.567 8.444zm-18.333-8.543c.817 1.113 5.66 6.981 17.291 7.521a21.359 21.359 0 0 0 17.632-7.788c-3.813-10.383-9.889-14.269-10.75-14.778h-4.153l.044.172a.5.5 0 0 1-.481.625l-4.508.02a.6.6 0 0 1-.4-.192.5.5 0 0 1-.091-.431l.05-.194H242.2c-.892.539-7.207 4.673-10.492 15.045z" class="cls-4"/>
        </g>
        <g id="그룹_505">
            <path id="패스_1044" d="M256.821 253.337c0 3.982-3.512 7.208-7.845 7.208s-7.847-3.226-7.847-7.208v-2.747c0-3.981 3.514-7.209 7.847-7.209s7.845 3.228 7.845 7.209z" class="cls-8"/>
            <path id="패스_1045" d="M248.976 261.045c-4.6 0-8.347-3.458-8.347-7.708v-2.747c0-4.251 3.744-7.709 8.347-7.709s8.345 3.458 8.345 7.709v2.747c0 4.25-3.743 7.708-8.345 7.708zm0-17.164c-4.051 0-7.347 3.01-7.347 6.709v2.747c0 3.7 3.3 6.708 7.347 6.708s7.345-3.009 7.345-6.708v-2.747c0-3.699-3.296-6.709-7.345-6.709z" class="cls-4"/>
        </g>
        <g id="그룹_506">
            <path id="패스_1046" d="M257.594 256.937a1.838 1.838 0 0 0-1.8-1.855v-2.088c0-.921-.586-2.7-1.507-2.7l-10.519 1.508a1.69 1.69 0 0 0-1.7 1.655v1.643a1.853 1.853 0 0 0 0 3.669v3.342a1.669 1.669 0 0 0 1.667 1.668h10.4a1.669 1.669 0 0 0 1.667-1.668v-3.321a1.838 1.838 0 0 0 1.792-1.853z" class="cls-6"/>
            <path id="패스_1047" d="M254.123 264.281h-10.4a2.17 2.17 0 0 1-2.167-2.168v-2.945a2.358 2.358 0 0 1 0-4.462v-1.245a2.183 2.183 0 0 1 2.2-2.155l10.449-1.5c1.385 0 2.073 2.077 2.073 3.191v1.647a2.362 2.362 0 0 1 0 4.591v2.881a2.17 2.17 0 0 1-2.155 2.165zm.16-13.483l-10.448 1.5a1.222 1.222 0 0 0-1.275 1.16v1.642a.5.5 0 0 1-.437.5 1.353 1.353 0 0 0 0 2.677.5.5 0 0 1 .437.5v3.342a1.169 1.169 0 0 0 1.167 1.168h10.4a1.169 1.169 0 0 0 1.167-1.168v-3.321a.5.5 0 0 1 .5-.5 1.356 1.356 0 0 0 0-2.71.5.5 0 0 1-.5-.5V253c-.004-.854-.554-2.2-1.011-2.2z" class="cls-4"/>
        </g>
        <path id="패스_1048" d="M252.48 255.815a.735.735 0 1 1-.734-.735.733.733 0 0 1 .734.735z" class="cls-4"/>
        <path id="패스_1049" d="M247.185 255.815a.735.735 0 1 1-.736-.735.735.735 0 0 1 .736.735z" class="cls-4"/>
        <path id="패스_1050" d="M250.006 259.99h-.737a1.248 1.248 0 0 1-1.144-.453.827.827 0 0 1-.025-.774 22.49 22.49 0 0 0 .453-2.529.375.375 0 0 1 .744.1 21.34 21.34 0 0 1-.506 2.719l-.026.1c.016.021.151.093.5.093h.737a.375.375 0 0 1 0 .75z" class="cls-4"/>
        <path id="패스_1051" d="M252.48 268.3a.5.5 0 0 1-.386-.184l-3.285-4.023a.5.5 0 0 1 .775-.633l2.892 3.543 2.85-3.593a.5.5 0 1 1 .783.622l-3.236 4.079c-.096.124-.252.24-.393.189z" class="cls-4"/>
        <path id="패스_1052" d="M246.082 268.3a.5.5 0 0 1-.363-.156l-3.874-4.079a.5.5 0 0 1 .726-.688l3.472 3.657 2.758-3.563a.5.5 0 0 1 .791.612l-3.115 4.023a.5.5 0 0 1-.37.194z" class="cls-4"/>
        <g id="그룹_507">
            <path id="패스_1053" d="M247.059 266.543l2.138-2.762 2.255 2.762-1.029 2h-2.3z" class="cls-8"/>
            <path id="패스_1054" d="M250.422 269.041h-2.3a.5.5 0 0 1-.441-.266l-1.059-2a.5.5 0 0 1 .046-.54l2.138-2.761a.5.5 0 0 1 .388-.2.547.547 0 0 1 .4.184l2.254 2.762a.5.5 0 0 1 .057.545l-1.03 2a.5.5 0 0 1-.453.276zm-2-1h1.7l.739-1.436-1.649-2.02-1.556 2.009z" class="cls-4"/>
        </g>
        <g id="그룹_508">
            <path id="패스_1055" d="M250.422 268.541h-2.3l-.96 9.268 1.872 3.645 1.926-3.645z" class="cls-8"/>
            <path id="패스_1056" d="M249.029 281.953a.52.52 0 0 1-.444-.271l-1.872-3.645a.493.493 0 0 1-.053-.279l.959-9.269a.5.5 0 0 1 .5-.448h2.3a.5.5 0 0 1 .5.471l.533 9.268a.492.492 0 0 1-.057.263l-1.924 3.645a.5.5 0 0 1-.442.265zm-1.359-4.24l1.365 2.658 1.412-2.672-.5-8.658h-1.381z" class="cls-4"/>
        </g>
        <g id="그룹_509">
            <path id="패스_1057" d="M211.313 260.447a4.267 4.267 0 1 1-4.266-4.265 4.266 4.266 0 0 1 4.266 4.265z" class="cls-6"/>
            <path id="패스_1058" d="M207.047 265.215a4.766 4.766 0 1 1 4.766-4.768 4.773 4.773 0 0 1-4.766 4.768zm0-8.533a3.766 3.766 0 1 0 3.766 3.765 3.771 3.771 0 0 0-3.766-3.765z" class="cls-4"/>
        </g>
        <g id="그룹_510">
            <path id="패스_1059" d="M303.31 262.361a12.5 12.5 0 1 1-12.5-12.5 12.5 12.5 0 0 1 12.5 12.5z" class="cls-9"/>
            <path id="패스_1060" d="M290.806 275.365a13 13 0 1 1 13-13 13.019 13.019 0 0 1-13 13zm0-25.009a12 12 0 1 0 12 12 12.017 12.017 0 0 0-12-12z" class="cls-4"/>
        </g>
        <g id="그룹_512">
            <g id="그룹_511">
                <path id="패스_1061" d="M290.9 264.715a8.092 8.092 0 0 0-8.052 7.3 12.488 12.488 0 0 0 16.082-.158 8.089 8.089 0 0 0-8.03-7.142z" class="cls-6"/>
                <path id="패스_1062" d="M290.806 275.365a13.036 13.036 0 0 1-8.273-2.968.506.506 0 0 1-.18-.436 8.59 8.59 0 0 1 17.078-.168.5.5 0 0 1-.172.438 12.993 12.993 0 0 1-8.453 3.134zm-7.426-3.571a11.99 11.99 0 0 0 15.021-.147 7.589 7.589 0 0 0-15.021.147z" class="cls-4"/>
            </g>
        </g>
        <g id="그룹_513">
            <path id="패스_1063" d="M295.465 260.447a4.266 4.266 0 1 1-4.266-4.265 4.266 4.266 0 0 1 4.266 4.265z" class="cls-6"/>
            <path id="패스_1064" d="M291.2 265.215a4.766 4.766 0 1 1 4.766-4.768 4.773 4.773 0 0 1-4.766 4.768zm0-8.533a3.766 3.766 0 1 0 3.766 3.765 3.77 3.77 0 0 0-3.766-3.765z" class="cls-4"/>
        </g>
        <g id="그룹_514">
            <path id="패스_1065" d="M206.134 264.832l-.4.516.545 1.029h1.185l.53-1.1-.383-.447z" class="cls-8"/>
            <path id="패스_1066" d="M207.465 266.752h-1.185a.376.376 0 0 1-.331-.2l-.545-1.03a.374.374 0 0 1 .035-.4l.4-.516a.377.377 0 0 1 .3-.146h1.478a.378.378 0 0 1 .285.131l.383.447a.375.375 0 0 1 .053.406l-.53 1.1a.375.375 0 0 1-.343.208zm-.959-.75h.724l.321-.665-.111-.13h-1.122l-.138.18z" class="cls-4"/>
        </g>
        <g id="그룹_515">
            <path id="패스_1067" d="M207.465 266.67h-1.185l-.647 4.768 1.116 1.875 1.128-1.875z" class="cls-8"/>
            <path id="패스_1068" d="M206.749 273.688a.36.36 0 0 1-.322-.183l-1.116-1.875a.373.373 0 0 1-.049-.242l.647-4.768a.375.375 0 0 1 .371-.325h1.185a.375.375 0 0 1 .374.344l.411 4.767a.37.37 0 0 1-.052.225l-1.128 1.875a.375.375 0 0 1-.321.182zm-.727-2.329l.728 1.223.742-1.232-.371-4.3h-.513z" class="cls-4"/>
        </g>
        <g id="그룹_516">
            <path id="패스_1069" d="M290.375 264.832l-.4.516.545 1.029h1.186l.529-1.1-.383-.447z" class="cls-8"/>
            <path id="패스_1070" d="M291.707 266.752h-1.186a.38.38 0 0 1-.332-.2l-.545-1.03a.376.376 0 0 1 .036-.4l.4-.516a.379.379 0 0 1 .3-.146h1.478a.384.384 0 0 1 .286.131l.382.447a.373.373 0 0 1 .053.406l-.529 1.1a.375.375 0 0 1-.343.208zm-.96-.75h.725l.32-.665-.11-.13h-1.123l-.138.18z" class="cls-4"/>
        </g>
        <g id="그룹_517">
            <path id="패스_1071" d="M291.707 266.67h-1.186l-.646 4.768 1.115 1.875 1.128-1.875z" class="cls-8"/>
            <path id="패스_1072" d="M290.99 273.688a.374.374 0 0 1-.321-.183l-1.115-1.875a.373.373 0 0 1-.049-.242l.646-4.768a.376.376 0 0 1 .371-.325h1.186a.374.374 0 0 1 .373.344l.412 4.767a.378.378 0 0 1-.053.225l-1.128 1.875a.374.374 0 0 1-.322.182zm-.726-2.329l.728 1.223.742-1.232-.371-4.3h-.513z" class="cls-4"/>
        </g>
        <path id="패스_1073" d="M258.664 268.082s-6.184 12.16-26.165 11.861a23.039 23.039 0 0 0 18.456 6.592s10.172-.588 16.238-8.228c0 0-2.412-7.844-7.258-12.147z" style="mix-blend-mode:multiply;isolation:isolate" fill="#eaeaf9"/>
        <path id="패스_1074" d="M238.833 284.625a.375.375 0 0 1-.375-.375v-8.484a.375.375 0 0 1 .75 0v8.484a.375.375 0 0 1-.375.375z" class="cls-4"/>
        <path id="패스_1075" d="M259.136 284.625a.375.375 0 0 1-.375-.375v-8.484a.375.375 0 0 1 .75 0v8.484a.375.375 0 0 1-.375.375z" class="cls-4"/>
        <g id="그룹_518" transform="translate(-42.546 17.455)">
            <path id="사각형_868" d="M0 0H4.143V4.144H0z" class="cls-9" transform="translate(247.119 221.082) rotate(-44.986)"/>
            <path id="패스_1076" d="M250.049 224.585a.54.54 0 0 1-.382-.159l-2.961-2.962a.541.541 0 0 1 0-.764l2.958-2.961a.56.56 0 0 1 .766 0l2.961 2.961a.541.541 0 0 1 0 .764l-2.961 2.962a.54.54 0 0 1-.381.159zm-2.2-3.5l2.2 2.2 2.195-2.2-2.2-2.195z" class="cls-11" transform="translate(0 0)"/>
        </g>
        <g id="그룹_519" transform="translate(10 -7)">
            <path id="사각형_869" d="M0 0H3.493V3.493H0z" class="cls-3" transform="translate(274.857 293.659) rotate(-45.001)"/>
            <path id="패스_1077" d="M277.327 296.66l-3-3 3-3 3 3zm-1.768-3l1.768 1.77 1.769-1.77-1.769-1.769z" class="cls-11"/>
        </g>
    </g>
</svg>
