<svg xmlns="http://www.w3.org/2000/svg" width="187.416" height="42.973" viewBox="0 0 187.416 42.973">
    <defs>
        <style>
            .cls-1{fill:#303236}
        </style>
    </defs>
    <g id="그룹_11" transform="translate(-707.29 -257.762)">
        <g id="그룹_1">
            <path id="패스_1" d="M719.721 287.981c-7.326 0-12.431-4.346-12.431-13.294v-3.631c0-8.947 5.105-13.294 12.431-13.294h1.568c6.845 0 11.63 3.375 11.63 11.182h-5.429c0-3.881-2.344-5.7-6.2-5.7h-1.568c-4.341 0-7.005 2.788-7.005 7.808v3.631c0 5.025 2.664 7.81 7.005 7.81h1.568c3.857 0 6.2-1.818 6.2-5.7h5.429c0 7.811-4.785 11.184-11.63 11.184z" class="cls-1"/>
            <path id="패스_2" d="M750.906 287.645a8.783 8.783 0 0 1-.483-2.573c-1.157 2.236-3.239 3.249-5.972 3.249-4.786 0-8.737-1.562-8.737-7.047v-.509c0-5.825 3.857-7.555 10.247-7.555h1.157a18.083 18.083 0 0 0 3.3-.169v-.972c0-2.447-1.893-3.333-4.943-3.333-2.026 0-4.3 1.137-4.3 3.546h-4.915c0-6.629 4.69-8.486 9.22-8.486 4.786 0 9.858 1.14 9.858 8.273v11.271a13.693 13.693 0 0 0 .579 4.3zm-.483-10.384a25.232 25.232 0 0 1-3.821.382h-.193l-.772.042c-3.049.17-5.01 1.184-5.01 3.08v.509c0 1.432 1.058 2.4 3.824 2.4 3.373 0 5.972-2.237 5.972-4.515z" class="cls-1"/>
            <path id="패스_3" d="M761.059 287.645v-22.92h5.168v3.338c1.029-2.535 2.8-4.267 5.782-4.267a3.454 3.454 0 0 1 1.35.3v6.035a6.048 6.048 0 0 0-1.736-.294c-3.37 0-5.4 3.5-5.4 7.132v10.679z" class="cls-1"/>
            <path id="패스_4" d="M800.178 287.645v-12.83c0-2.784-.16-5.4-2.922-5.4-2.475 0-3.5 2.659-3.5 6.122v12.113h-5.171v-13.17c0-2.53-.706-5.065-3.053-5.065s-3.341 2.954-3.341 6.585v11.65h-5.171v-22.92h5.171v3.338c1.095-3.042 2.765-4.267 5.269-4.267 2.184 0 4.236 1.689 4.814 4.561 1.1-3.336 3.567-4.561 6.717-4.561 5.427 0 6.358 5.2 6.358 9.245v14.6z" class="cls-1"/>
            <path id="패스_5" d="M814.762 278.234c.065 2.994 2.089 4.9 5.331 4.9 2.824 0 4.626-.844 5.364-3.5h5.171c-1.06 6.792-4.175 8.694-10.535 8.694-7.064 0-10.5-4.556-10.5-11.231v-2.275c0-6.671 3.628-11.019 10.5-11.019s10.5 4.348 10.5 11.019v3.419zm10.663-4.981c-.16-2.491-2.217-4.262-5.332-4.262s-5.171 1.771-5.331 4.262z" class="cls-1"/>
            <path id="패스_6" d="M835.446 287.645v-22.92h5.173v3.338c1.027-2.535 2.792-4.267 5.779-4.267a3.459 3.459 0 0 1 1.351.3v6.035a6.036 6.036 0 0 0-1.735-.294c-3.373 0-5.395 3.5-5.395 7.132v10.679z" class="cls-1"/>
            <path id="패스_7" d="M864.965 273.547c0-3.543-2.249-4.556-5.015-4.556s-5.007 1.814-5.007 5.863v2.407c0 4.053 2.248 5.87 5.007 5.87s5.015-1.013 5.015-4.563h5.171c0 7.22-4.177 9.753-10.186 9.753-6.194 0-10.179-3.5-10.179-11.06v-2.407c0-7.553 3.985-11.058 10.179-11.058 6.009 0 10.186 2.533 10.186 9.751z" class="cls-1"/>
            <path id="패스_8" d="M878.843 278.234c.062 2.994 2.085 4.9 5.331 4.9 2.828 0 4.626-.844 5.364-3.5h5.168c-1.06 6.792-4.175 8.694-10.532 8.694-7.067 0-10.506-4.556-10.506-11.231v-2.275c0-6.671 3.633-11.019 10.506-11.019s10.5 4.348 10.5 11.019v3.419zm10.662-4.981c-.163-2.491-2.216-4.262-5.331-4.262s-5.174 1.771-5.331 4.262z" class="cls-1"/>
        </g>
        <g id="그룹_2">
            <path id="패스_9" d="M714.923 299.083a1.759 1.759 0 0 1-1.965 1.652 1.9 1.9 0 0 1-1.975-2.059v-.869a1.9 1.9 0 0 1 1.975-2.072 1.766 1.766 0 0 1 1.965 1.654h-.4c0-.882-.932-1.223-1.562-1.223a1.54 1.54 0 0 0-1.569 1.641v.869a1.536 1.536 0 0 0 1.569 1.634c.63 0 1.562-.333 1.562-1.227z" class="cls-1"/>
            <path id="패스_10" d="M730.689 300.6a2.629 2.629 0 0 1-.094-.717 1.808 1.808 0 0 1-1.67.856c-.863 0-1.726-.362-1.726-1.336v-.218c0-1.135.89-1.419 2.066-1.419h.617a3.618 3.618 0 0 0 .713-.079v-.5c0-.954-.814-1.026-1.454-1.026-.569 0-1.439.2-1.439 1.035h-.389c0-1.14 1.017-1.46 1.828-1.46.853 0 1.843.175 1.843 1.451v2.613a2.673 2.673 0 0 0 .1.8zm-.094-2.55a3.289 3.289 0 0 1-.895.114h-.5c-.883 0-1.609.2-1.609 1.021v.218c0 .709.686.932 1.334.932 1.03 0 1.67-.667 1.67-1.162z" class="cls-1"/>
            <path id="패스_11" d="M743.731 300.6v-4.665h.4v1.059c.377-.974.828-1.255 1.583-1.255a.718.718 0 0 1 .261.052v.517a1.016 1.016 0 0 0-.343-.056c-.86 0-1.5.714-1.5 2.056v2.292z" class="cls-1"/>
            <path id="패스_12" d="M775.692 299.083a1.762 1.762 0 0 1-1.967 1.652 1.891 1.891 0 0 1-1.971-2.059v-.869a1.9 1.9 0 0 1 1.971-2.072 1.77 1.77 0 0 1 1.967 1.654h-.405c0-.882-.929-1.223-1.562-1.223a1.538 1.538 0 0 0-1.569 1.641v.869a1.534 1.534 0 0 0 1.569 1.634c.633 0 1.562-.333 1.562-1.227z" class="cls-1"/>
            <path id="패스_13" d="M792.11 298.69a2.067 2.067 0 0 1-4.134 0v-.91a2.067 2.067 0 0 1 4.134 0zm-.4-.91a1.671 1.671 0 0 0-3.341 0v.91a1.671 1.671 0 0 0 3.341 0z" class="cls-1"/>
            <path id="패스_14" d="M809.781 300.6v-2.809c0-1.033-.252-1.6-1.023-1.6-.755 0-1.194.788-1.194 1.752v2.657h-.405v-2.88c0-.85-.362-1.53-1.022-1.53s-1.164.9-1.164 1.85v2.56h-.4v-4.665h.4v.922a1.338 1.338 0 0 1 1.288-1.118c.588 0 1.019.379 1.153 1.131a1.5 1.5 0 0 1 1.455-1.131c.971 0 1.307.732 1.307 1.869v2.992z" class="cls-1"/>
            <path id="패스_15" d="M828.029 300.6v-2.809c0-1.033-.248-1.6-1.023-1.6-.752 0-1.19.788-1.19 1.752v2.657h-.408v-2.88c0-.85-.363-1.53-1.023-1.53s-1.163.9-1.163 1.85v2.56h-.4v-4.665h.4v.922a1.339 1.339 0 0 1 1.284-1.118c.6 0 1.026.379 1.16 1.131a1.5 1.5 0 0 1 1.454-1.131c.972 0 1.309.732 1.309 1.869v2.992z" class="cls-1"/>
            <path id="패스_16" d="M844.915 299.128a1.826 1.826 0 0 1-1.987 1.607 2.018 2.018 0 0 1-2.073-2.125v-.83a1.983 1.983 0 0 1 2.073-2.045 1.876 1.876 0 0 1 2.007 1.99v.717h-3.67a1.663 1.663 0 0 0 1.663 1.868 1.494 1.494 0 0 0 1.582-1.182zm-.386-1.118c0-1.3-.634-1.844-1.6-1.844a1.628 1.628 0 0 0-1.663 1.844z" class="cls-1"/>
            <path id="패스_17" d="M857.5 300.6v-4.665h.395v1.059c.379-.974.831-1.255 1.583-1.255a.756.756 0 0 1 .264.052v.517a1.02 1.02 0 0 0-.343-.056c-.863 0-1.5.714-1.5 2.056v2.292z" class="cls-1"/>
            <path id="패스_18" d="M875.646 299.083a1.76 1.76 0 0 1-1.967 1.652 1.9 1.9 0 0 1-1.975-2.059v-.869a1.9 1.9 0 0 1 1.975-2.072 1.767 1.767 0 0 1 1.967 1.654h-.4c0-.882-.928-1.223-1.562-1.223a1.539 1.539 0 0 0-1.566 1.641v.869a1.535 1.535 0 0 0 1.566 1.634c.634 0 1.562-.333 1.562-1.227z" class="cls-1"/>
            <path id="패스_19" d="M891.982 299.128a1.825 1.825 0 0 1-1.982 1.607 2.012 2.012 0 0 1-2.065-2.125v-.83a1.976 1.976 0 0 1 2.065-2.045 1.878 1.878 0 0 1 2.01 1.99v.717h-3.671A1.662 1.662 0 0 0 890 300.31a1.5 1.5 0 0 0 1.585-1.182zm-.384-1.118c0-1.3-.631-1.844-1.6-1.844a1.628 1.628 0 0 0-1.661 1.844z" class="cls-1"/>
        </g>
    </g>
</svg>
