<svg xmlns="http://www.w3.org/2000/svg" width="300" height="46" viewBox="0 0 300 46">
    <defs>
        <style>
            .cls-1{fill:#40a2f5}.cls-4{fill:#303236}
        </style>
    </defs>
    <g id="logo" transform="translate(-466.961 -184.056)">
        <g id="그룹_15" transform="translate(466.961 184.056)">
            <g id="그룹_14">
                <g id="그룹_9" transform="translate(54.516 27.94)">
                    <path id="패스_18" d="M2508.93 67.591L2505.343 64a24.414 24.414 0 0 1-2.689 7.9l.98.983a3.743 3.743 0 1 0 5.3-5.291z" class="cls-1" transform="translate(-2502.654 -64)"/>
                </g>
                <g id="그룹_11" transform="translate(3.004)">
                    <g id="그룹_10">
                        <path id="패스_19" d="M2495.75 65.753a.516.516 0 0 0 .369-.15.525.525 0 0 0 0-.735l-6.414-6.43a10.05 10.05 0 0 0-.737.75l6.418 6.416a.507.507 0 0 0 .364.149z" class="cls-1" transform="translate(-2468.898 -42.908)"/>
                        <path id="패스_20" d="M2480.825 56.49a.52.52 0 0 0 0 1.041h6.09c.188-.353.382-.7.589-1.041z" class="cls-1" transform="translate(-2480.306 -45.308)"/>
                        <path id="패스_21" d="M2496.737 60.843L2492.6 56.7a.507.507 0 0 0-.4-.208h-8.353c-.208.342-.4.688-.59 1.041h8.672l4.071 4.06a10.006 10.006 0 0 1 .737-.75z" class="cls-1" transform="translate(-2476.656 -45.308)"/>
                        <path id="패스_22" fill="#3ba0ff" d="M2505.881 51.48a24.228 24.228 0 0 0-14.477 4.743h2.688a7.26 7.26 0 0 1 5.479 2.462l5.867 5.667c.146 0 .291-.011.442-.011a10.145 10.145 0 1 1-10.5 10.138v-.152l-4.331-4.185h-8.56a22.366 22.366 0 0 0-.428 4.337c0 12.7 10.661 23 23.816 23s23.81-10.3 23.81-23-10.657-22.999-23.806-22.999z" transform="translate(-2478.136 -51.48)"/>
                    </g>
                </g>
                <g id="그룹_12" transform="translate(0 7.959)">
                    <path id="패스_23" fill="#40a2f5" fill-rule="evenodd" d="M2510.961 66.774l-10.316-10.314a3.713 3.713 0 0 0-2.906-1.414h-15.033a3.743 3.743 0 1 0 0 7.486h13.429l9.532 9.532a3.742 3.742 0 1 0 5.293-5.291z" transform="translate(-2478.961 -55.047)"/>
                </g>
                <g id="그룹_13" transform="translate(30.749 29.516)"/>
            </g>
        </g>
        <g id="그룹_16" transform="translate(541.979 189.91)">
            <path id="패스_25" d="M2528.529 86.028c-8.818 0-14.964-4.992-14.964-15.272v-4.173c0-10.278 6.145-15.272 14.964-15.272h1.894c8.24 0 14 3.877 14 12.847h-6.534c0-4.459-2.822-6.545-7.465-6.545h-1.894c-5.228 0-8.434 3.2-8.434 8.97v4.173c0 5.775 3.206 8.972 8.434 8.972h1.894c4.643 0 7.465-2.089 7.465-6.548h6.534c0 8.975-5.759 12.849-14 12.849z" class="cls-4" transform="translate(-2513.565 -51.311)"/>
            <path id="패스_26" d="M2550.975 84.088a10.759 10.759 0 0 1-.584-3.1c-1.392 2.69-3.9 3.911-7.188 3.911-5.762 0-10.519-1.881-10.519-8.485V75.8c0-7.015 4.643-9.1 12.335-9.1h1.395a21.707 21.707 0 0 0 3.977-.208v-1.16c0-2.946-2.279-4.013-5.95-4.013-2.442 0-5.184 1.369-5.184 4.269h-5.922c0-7.98 5.647-10.218 11.105-10.218 5.762 0 11.872 1.373 11.872 9.962V78.9a16.447 16.447 0 0 0 .7 5.186zm-.584-12.505a29.992 29.992 0 0 1-4.6.46h-.227l-.926.052c-3.682.2-6.038 1.423-6.038 3.709v.612c0 1.724 1.275 2.895 4.6 2.895 4.065 0 7.188-2.7 7.188-5.438z" class="cls-4" transform="translate(-2498.575 -49.774)"/>
            <path id="패스_27" d="M2549.732 84.088v-27.6h6.221v4.017c1.239-3.052 3.373-5.138 6.965-5.138a4.117 4.117 0 0 1 1.626.358v7.266a7.283 7.283 0 0 0-2.091-.353c-4.056 0-6.5 4.217-6.5 8.587v12.86z" class="cls-4" transform="translate(-2485.199 -49.774)"/>
            <path id="패스_28" d="M2588.352 84.088v-15.45c0-3.353-.193-6.509-3.514-6.509-2.982 0-4.221 3.2-4.221 7.373v14.586h-6.226v-15.86c0-3.045-.852-6.1-3.673-6.1s-4.026 3.559-4.026 7.93v14.03h-6.224v-27.6h6.224v4.017c1.319-3.662 3.333-5.138 6.349-5.138 2.628 0 5.1 2.035 5.793 5.492 1.317-4.017 4.3-5.492 8.088-5.492 6.537 0 7.65 6.256 7.65 11.131v17.59z" class="cls-4" transform="translate(-2476.807 -49.774)"/>
            <path id="패스_29" d="M2588.6 72.755c.079 3.605 2.511 5.9 6.419 5.9 3.4 0 5.57-1.017 6.457-4.221h6.228c-1.277 8.181-5.028 10.47-12.685 10.47-8.507 0-12.647-5.487-12.647-13.522v-2.744c0-8.032 4.368-13.268 12.647-13.268s12.641 5.236 12.641 13.268v4.117zm12.84-6c-.193-3-2.669-5.13-6.421-5.13s-6.228 2.132-6.419 5.13z" class="cls-4" transform="translate(-2459.618 -49.774)"/>
            <path id="패스_30" d="M2599.768 84.088v-27.6H2606v4.017c1.239-3.052 3.362-5.138 6.963-5.138a4.117 4.117 0 0 1 1.625.358v7.266a7.274 7.274 0 0 0-2.093-.353c-4.058 0-6.5 4.217-6.5 8.587v12.86z" class="cls-4" transform="translate(-2445.957 -49.774)"/>
            <path id="패스_31" d="M2627.7 67.113c0-4.268-2.707-5.487-6.042-5.487s-6.025 2.182-6.025 7.058v2.9c0 4.882 2.7 7.069 6.025 7.069s6.042-1.223 6.042-5.494h6.224c0 8.694-5.03 11.743-12.266 11.743-7.459 0-12.251-4.219-12.251-13.318v-2.9c0-9.094 4.792-13.315 12.251-13.315 7.236 0 12.266 3.05 12.266 11.743z" class="cls-4" transform="translate(-2438.526 -49.774)"/>
            <path id="패스_32" d="M2631.711 72.755c.072 3.605 2.511 5.9 6.423 5.9 3.4 0 5.569-1.017 6.455-4.221h6.22c-1.271 8.181-5.028 10.47-12.675 10.47-8.514 0-12.656-5.487-12.656-13.522v-2.744c0-8.032 4.373-13.268 12.656-13.268s12.639 5.236 12.639 13.268v4.117zm12.834-6c-.191-3-2.661-5.13-6.411-5.13s-6.235 2.132-6.423 5.13z" class="cls-4" transform="translate(-2425.828 -49.774)"/>
        </g>
    </g>
</svg>
