<svg xmlns="http://www.w3.org/2000/svg" width="68.089" height="51.985" viewBox="0 0 68.089 51.985">
    <defs>
        <style>
            .cls-1{fill:#40a2f5}
        </style>
    </defs>
    <g id="그룹_10" transform="translate(-768.012 -166.033)">
        <g id="그룹_9">
            <g id="그룹_4">
                <path id="패스_21" d="M834.862 201.67l-4.055-4.056a27.471 27.471 0 0 1-3.037 8.919l1.113 1.112a4.226 4.226 0 1 0 5.979-5.975z" class="cls-1"/>
            </g>
            <g id="그룹_6">
                <g id="그룹_5">
                    <path id="패스_22" d="M800.909 191.849a.586.586 0 0 0 .417-.17.574.574 0 0 0 .168-.415.568.568 0 0 0-.168-.414l-7.245-7.264c-.291.268-.568.553-.831.849l7.248 7.245a.572.572 0 0 0 .411.169z" class="cls-1"/>
                    <path id="패스_23" d="M771.989 178.672a.587.587 0 1 0 0 1.173h6.879c.211-.4.43-.787.663-1.173z" class="cls-1"/>
                    <path id="패스_24" d="M794.081 183.586l-4.668-4.681a.575.575 0 0 0-.446-.233h-9.436c-.233.386-.452.776-.663 1.173h9.793l4.589 4.59c.263-.296.54-.581.831-.849z" class="cls-1"/>
                    <path id="패스_25" fill="#3ba0ff" d="M801.83 166.033a25.875 25.875 0 0 0-15.8 5.359h2.936a7.816 7.816 0 0 1 5.978 2.783l6.406 6.4c.159 0 .319-.011.479-.011a11.458 11.458 0 1 1-11.457 11.457v-.17l-4.728-4.73h-9.343a25.992 25.992 0 1 0 25.524-21.092z"/>
                </g>
            </g>
            <g id="그룹_7">
                <path id="패스_26" fill="#40a2f5" fill-rule="evenodd" d="M804.147 188.275L792.5 176.627a4.194 4.194 0 0 0-3.281-1.593H772.24a4.226 4.226 0 1 0 0 8.451h15.166l10.766 10.768a4.226 4.226 0 0 0 5.975-5.978z"/>
            </g>
            <g id="그룹_8"/>
        </g>
    </g>
</svg>
