<svg xmlns="http://www.w3.org/2000/svg" width="195.867" height="25.606" viewBox="0 0 195.867 25.606">
    <defs>
        <style>
            .cls-1,.cls-3{fill:#fff}.cls-3{stroke:#3ba0ff;stroke-miterlimit:10;stroke-width:.5px}
        </style>
    </defs>
    <g id="그룹_14" transform="translate(-863.525 -14.663)">
        <g id="그룹_12">
            <g id="그룹_11">
                <g id="그룹_6">
                    <path id="패스_5" d="M895.094 32.037l-1.914-1.916a13.046 13.046 0 0 1-1.434 4.212l.523.525a2 2 0 0 0 2.825-2.821z" class="cls-1"/>
                </g>
                <g id="그룹_8">
                    <g id="그룹_7">
                        <path id="패스_6" d="M879.061 27.4a.27.27 0 0 0 .2-.08.276.276 0 0 0 0-.391l-3.419-3.43a5.329 5.329 0 0 0-.394.4l3.424 3.421a.268.268 0 0 0 .189.08z" class="cls-1"/>
                        <path id="패스_7" d="M865.4 21.176a.277.277 0 0 0 0 .554h3.248c.1-.188.2-.372.315-.554z" class="cls-1"/>
                        <path id="패스_8" d="M875.837 23.5l-2.206-2.21a.266.266 0 0 0-.21-.111h-4.455c-.111.182-.215.366-.315.554h4.625l2.167 2.168a5.329 5.329 0 0 1 .394-.401z" class="cls-1"/>
                        <path id="패스_9" d="M879.5 15.208a12.212 12.212 0 0 0-7.461 2.531h1.386a3.691 3.691 0 0 1 2.824 1.313l3.024 3.025h.227a5.41 5.41 0 1 1-5.411 5.409v-.08l-2.232-2.234h-4.412a12.424 12.424 0 0 0-.22 2.314A12.273 12.273 0 1 0 879.5 15.208z" class="cls-1"/>
                    </g>
                </g>
                <g id="그룹_9">
                    <path id="패스_10" fill="#fff" fill-rule="evenodd" d="M880.591 25.711l-5.5-5.5a1.985 1.985 0 0 0-1.55-.752h-8.018a2 2 0 1 0 0 3.991h7.163l5.083 5.085a2 2 0 1 0 2.823-2.823z"/>
                </g>
                <g id="그룹_10"/>
            </g>
        </g>
        <g id="그룹_13">
            <path id="패스_12" d="M915.339 39.74c-6.018 0-10.21-3.571-10.21-10.923v-2.983c0-7.35 4.192-10.921 10.21-10.921h1.291c5.623 0 9.552 2.772 9.552 9.186h-4.458c0-3.188-1.926-4.68-5.094-4.68h-1.291c-3.567 0-5.754 2.291-5.754 6.415v2.983c0 4.13 2.187 6.417 5.754 6.417h1.291c3.168 0 5.094-1.494 5.094-4.683h4.458c0 6.418-3.929 9.189-9.552 9.189z" class="cls-3"/>
            <path id="패스_13" d="M940.96 39.464a7.407 7.407 0 0 1-.4-2.114 5.067 5.067 0 0 1-4.9 2.669c-3.93 0-7.177-1.283-7.177-5.789v-.419c0-4.785 3.168-6.2 8.416-6.2h.952a14.679 14.679 0 0 0 2.713-.142v-.8c0-2.011-1.553-2.738-4.058-2.738-1.667 0-3.538.934-3.538 2.913h-4.04c0-5.446 3.852-6.972 7.578-6.972 3.931 0 8.1.937 8.1 6.8v9.259a11.221 11.221 0 0 0 .476 3.538zm-.4-8.532a20.56 20.56 0 0 1-3.139.314h-.154l-.633.036c-2.512.139-4.119.97-4.119 2.529v.419c0 1.176.869 1.974 3.141 1.974 2.775 0 4.9-1.838 4.9-3.71z" class="cls-3"/>
            <path id="패스_14" d="M949.3 39.464v-18.83h4.244v2.742c.845-2.083 2.3-3.506 4.752-3.506a2.819 2.819 0 0 1 1.109.244v4.958a4.981 4.981 0 0 0-1.426-.241c-2.769 0-4.435 2.878-4.435 5.859v8.774z" class="cls-3"/>
            <path id="패스_15" d="M981.44 39.464V28.922c0-2.287-.131-4.44-2.4-4.44-2.035 0-2.881 2.185-2.881 5.031v9.951h-4.248v-10.82c0-2.079-.58-4.162-2.506-4.162s-2.747 2.428-2.747 5.411v9.571h-4.246v-18.83h4.246v2.742c.9-2.5 2.274-3.506 4.332-3.506 1.793 0 3.48 1.389 3.953 3.747.9-2.74 2.932-3.747 5.518-3.747 4.461 0 5.221 4.269 5.221 7.594v12z" class="cls-3"/>
            <path id="패스_16" d="M993.423 31.732c.054 2.46 1.714 4.022 4.38 4.022 2.32 0 3.8-.693 4.406-2.878h4.248c-.871 5.582-3.43 7.143-8.654 7.143-5.8 0-8.629-3.744-8.629-9.227v-1.87c0-5.48 2.98-9.052 8.629-9.052s8.626 3.572 8.626 9.052v2.81zm8.761-4.092c-.131-2.047-1.822-3.5-4.381-3.5s-4.248 1.454-4.38 3.5z" class="cls-3"/>
            <path id="패스_17" d="M1010.414 39.464v-18.83h4.249v2.742c.846-2.083 2.295-3.506 4.752-3.506a2.818 2.818 0 0 1 1.109.244v4.958a4.976 4.976 0 0 0-1.427-.241c-2.77 0-4.434 2.878-4.434 5.859v8.774z" class="cls-3"/>
            <path id="패스_18" d="M1034.666 27.882c0-2.911-1.846-3.743-4.121-3.743s-4.11 1.489-4.11 4.816v1.977c0 3.33 1.844 4.822 4.11 4.822s4.121-.833 4.121-3.748h4.248c0 5.933-3.432 8.013-8.369 8.013-5.088 0-8.36-2.879-8.36-9.087v-1.977c0-6.2 3.272-9.085 8.36-9.085 4.937 0 8.369 2.081 8.369 8.012z" class="cls-3"/>
            <path id="패스_19" d="M1046.068 31.732c.05 2.46 1.714 4.022 4.383 4.022 2.321 0 3.8-.693 4.4-2.878h4.245c-.868 5.582-3.432 7.143-8.649 7.143-5.808 0-8.635-3.744-8.635-9.227v-1.87c0-5.48 2.985-9.052 8.635-9.052s8.624 3.572 8.624 9.052v2.81zm8.758-4.092c-.131-2.047-1.816-3.5-4.375-3.5s-4.254 1.454-4.383 3.5z" class="cls-3"/>
        </g>
    </g>
</svg>
