<svg width="24" height="22" viewBox="0 0 24 22" xmlns="http://www.w3.org/2000/svg">
    <g fill="#656565" fill-rule="nonzero">
        <path d="M21.512 1.871h-1.507V.643A.636.636 0 0 0 19.38 0a.636.636 0 0 0-.625.643v1.228h-6.127V.643A.636.636 0 0 0 12.003 0a.636.636 0 0 0-.625.643v1.228h-6.19V.643A.636.636 0 0 0 4.565 0a.636.636 0 0 0-.625.643v1.228H2.494C1.12 1.871 0 3.061 0 4.476v14.952C0 20.848 1.113 22 2.494 22h19.012C22.887 22 24 20.849 24 19.434V4.476c.006-1.415-1.113-2.605-2.488-2.605zm1.244 17.557c0 .707-.55 1.28-1.238 1.286H2.494c-.687 0-1.244-.573-1.244-1.28V4.476c0-.714.557-1.318 1.244-1.318H3.94v.932c0 .354.28.643.625.643.344 0 .625-.29.625-.643v-.932h6.189v.932c0 .354.281.643.625.643s.625-.29.625-.643v-.932h6.127v.932c0 .354.281.643.625.643s.625-.29.625-.643v-.932h1.507c.694 0 1.244.61 1.244 1.318v14.952z"/>
        <path d="M10.359 8.338H9.265a.636.636 0 0 0-.625.643c0 .353.281.643.625.643h1.094c.344 0 .625-.29.625-.643a.636.636 0 0 0-.625-.643zM14.71 8.338h-1.094a.636.636 0 0 0-.625.643c0 .353.281.643.625.643h1.094c.344 0 .625-.29.625-.643a.632.632 0 0 0-.625-.643zM19.099 8.338h-1.094a.636.636 0 0 0-.626.643c0 .353.282.643.626.643h1.094c.344 0 .625-.29.625-.643a.636.636 0 0 0-.625-.643z"/>
        <g>
            <path d="M10.359 12H9.265a.636.636 0 0 0-.625.643c0 .354.281.643.625.643h1.094c.344 0 .625-.29.625-.643A.636.636 0 0 0 10.36 12zM5.977 12h-1.1a.636.636 0 0 0-.626.643c0 .354.281.643.625.643H5.97c.344 0 .625-.29.625-.643A.631.631 0 0 0 5.977 12zM14.71 12h-1.094a.636.636 0 0 0-.625.643c0 .354.281.643.625.643h1.094c.344 0 .625-.29.625-.643A.632.632 0 0 0 14.71 12zM19.099 12h-1.094a.636.636 0 0 0-.626.643c0 .354.282.643.626.643h1.094c.344 0 .625-.29.625-.643a.636.636 0 0 0-.625-.643z"/>
        </g>
        <g>
            <path d="M10.359 16H9.265a.636.636 0 0 0-.625.643c0 .354.281.643.625.643h1.094c.344 0 .625-.29.625-.643A.636.636 0 0 0 10.36 16zM5.977 16h-1.1a.636.636 0 0 0-.626.643c0 .354.281.643.625.643H5.97c.344 0 .625-.29.625-.643A.631.631 0 0 0 5.977 16zM14.71 16h-1.094a.636.636 0 0 0-.625.643c0 .354.281.643.625.643h1.094c.344 0 .625-.29.625-.643A.632.632 0 0 0 14.71 16z"/>
        </g>
    </g>
</svg>
