<svg width="19" height="20" viewBox="0 0 19 20" xmlns="http://www.w3.org/2000/svg">
    <g fill="#FFF" fill-rule="nonzero">
        <path d="M9.502 12.881a.65.65 0 0 1-.478-.211L4.39 7.648c-.401-.434-.103-1.157.479-1.157h2.427V1.24C7.296.612 7.791.1 8.399.1h2.207c.608 0 1.103.512 1.103 1.141v5.25h2.427c.582 0 .88.723.478 1.157L9.981 12.67a.65.65 0 0 1-.479.211zM17.192 19.948H1.812c-.723 0-1.312-.421-1.312-.94v-.268c0-.518.589-.94 1.313-.94h15.38c.723 0 1.312.422 1.312.94v.268c0 .519-.589.94-1.313.94z"/>
    </g>
</svg>
