<svg xmlns="http://www.w3.org/2000/svg" width="15" height="14" viewBox="0 0 15 14">
    <path fill="#3ba0ff" d="M15.5 9.686A4.962 4.962 0 0 0 15.555 9a4.962 4.962 0 0 0-.054-.686l1.627-1.155a.332.332 0 0 0 .093-.448l-1.542-2.422a.407.407 0 0 0-.47-.154l-1.92.7a5.8 5.8 0 0 0-1.3-.686l-.293-1.855A.366.366 0 0 0 11.314 2H8.23a.366.366 0 0 0-.378.294l-.293 1.855a6.094 6.094 0 0 0-1.3.686l-1.92-.7a.394.394 0 0 0-.47.154L2.324 6.711a.324.324 0 0 0 .093.448l1.627 1.155A5.049 5.049 0 0 0 3.99 9a5.049 5.049 0 0 0 .054.686l-1.627 1.155a.332.332 0 0 0-.093.448l1.542 2.422a.407.407 0 0 0 .47.154l1.92-.7a5.8 5.8 0 0 0 1.3.686l.293 1.855A.366.366 0 0 0 8.23 16h3.084a.366.366 0 0 0 .378-.294l.293-1.855a6.094 6.094 0 0 0 1.3-.686l1.92.7a.394.394 0 0 0 .47-.154l1.542-2.422a.332.332 0 0 0-.093-.448zM9.772 11.45A2.586 2.586 0 0 1 7.074 9a2.586 2.586 0 0 1 2.7-2.45A2.586 2.586 0 0 1 12.471 9a2.586 2.586 0 0 1-2.699 2.45z" transform="translate(-2.271 -2)"/>
</svg>
