<svg xmlns="http://www.w3.org/2000/svg" xmlns:xlink="http://www.w3.org/1999/xlink" width="210" height="166" viewBox="0 0 210 166">
    <defs>
        <clipPath id="clip-path">
            <path id="패스_1131" d="M89.374 139.876l.041 7.214.041 7.248-16.426-2.525a1.614 1.614 0 0 1-.945-.571 3.447 3.447 0 0 1-.64-1.176 4.762 4.762 0 0 1-.238-1.472 3.893 3.893 0 0 1 .268-1.464l2.972-7.235a3.823 3.823 0 0 1 .439-.8 2.694 2.694 0 0 1 .556-.576 1.969 1.969 0 0 1 .644-.323 1.729 1.729 0 0 1 .7-.045z" class="cls-1" transform="translate(-71.205 -138.13)"/>
        </clipPath>
        <clipPath id="clip-path-2">
            <path id="패스_1143" d="M97.711 141.309a1.972 1.972 0 0 1 .621.195 2.725 2.725 0 0 1 .585.4 3.546 3.546 0 0 1 .527.584 4.867 4.867 0 0 1 .448.749l4.766 9.828a6.378 6.378 0 0 1 .149 2.356 1.835 1.835 0 0 1-.55 1.114 1.379 1.379 0 0 1-.739.328 1.575 1.575 0 0 1-.42 0L84.63 154.02l-.076-14.52 8.336 1.145z" class="cls-1" transform="translate(-84.554 -139.501)"/>
        </clipPath>
        <clipPath id="clip-path-3">
            <path id="패스_1195" d="M136.906 167.7c1.6-.224 2.687-2.186 2.7-4.034.011-1.814-1.046-3.5-2.656-3.29a2.738 2.738 0 0 0-1.831 1.218 5.022 5.022 0 0 0-.88 2.8c-.008 1.808 1.03 3.532 2.669 3.3z" class="cls-1" transform="translate(-134.237 -160.355)"/>
        </clipPath>
        <clipPath id="clip-path-4">
            <path id="패스_1206" d="M120.531 170.048a2.966 2.966 0 0 0 2.03-1.445 5.113 5.113 0 0 0 .775-2.685c.006-2.183-1.346-3.546-2.789-3.355-1.677.224-2.815 2.225-2.818 4.119 0 1.915 1.143 3.6 2.8 3.366z" class="cls-1" transform="translate(-117.729 -162.545)"/>
        </clipPath>
        <clipPath id="clip-path-5">
            <path id="패스_1220" d="M123.339 169.1l15.077-2.119a.975.975 0 0 0 .668-.992c0-.444-.253-.881-.66-.824l-10.749 1.5-4.331.6c-.412.057-.683.568-.684 1.023s.276.872.679.816z" class="cls-1" transform="translate(-122.66 -165.156)"/>
        </clipPath>
        <clipPath id="clip-path-6">
            <path id="패스_1231" d="M123.346 166.488l15.085-2.069c.4-.055.668-.556.67-1.007s-.263-.882-.66-.829l-11.425 1.549-3.663.5c-.41.055-.683.559-.684 1.022s.263.893.678.837z" class="cls-1" transform="translate(-122.668 -162.579)"/>
        </clipPath>
        <clipPath id="clip-path-7">
            <path id="패스_1242" d="M123.354 163.853l15.093-2.017c.4-.054.666-.553.67-1.007 0-.525-.324-.858-.66-.814l-8.112 1.072-6.984.923a.98.98 0 0 0-.686 1c0 .456.266.9.679.84z" class="cls-1" transform="translate(-122.675 -160.011)"/>
        </clipPath>
        <clipPath id="clip-path-8">
            <path id="패스_1254" d="M128.906 138.578l-3.541.358-24.808 2.512a.755.755 0 0 0-.483.217.856.856 0 0 0-.222.48 1.747 1.747 0 0 0 .044.673 3.225 3.225 0 0 0 .319.791l6.506 11.68a4.4 4.4 0 0 0 .553.773 4.254 4.254 0 0 0 .671.608 2.966 2.966 0 0 0 .707.381 1.5 1.5 0 0 0 .662.092l28.362-3.248a.718.718 0 0 0 .457-.217.838.838 0 0 0 .2-.474 1.783 1.783 0 0 0-.062-.66 3.269 3.269 0 0 0-.329-.778l-6.518-11.37a4.425 4.425 0 0 0-.543-.748 4.285 4.285 0 0 0-.655-.593 2.923 2.923 0 0 0-.686-.378 1.447 1.447 0 0 0-.634-.1z" class="cls-1" transform="translate(-99.836 -138.573)"/>
        </clipPath>
        <linearGradient id="linear-gradient" x1=".358" x2=".67" y1=".017" y2=".976" gradientUnits="objectBoundingBox">
            <stop offset="0" stop-color="#2b355d"/>
            <stop offset=".056" stop-color="#293764"/>
            <stop offset=".291" stop-color="#253e7e"/>
            <stop offset=".501" stop-color="#22438e"/>
            <stop offset=".665" stop-color="#224594"/>
            <stop offset=".768" stop-color="#3b57a6"/>
            <stop offset=".834" stop-color="#4760ae"/>
            <stop offset=".891" stop-color="#455eab"/>
            <stop offset=".927" stop-color="#3e57a2"/>
            <stop offset=".958" stop-color="#334c93"/>
            <stop offset=".985" stop-color="#243d7f"/>
            <stop offset="1" stop-color="#193270"/>
        </linearGradient>
        <linearGradient id="linear-gradient-2" x1=".354" x2=".679" y1=".006" y2=".968" xlink:href="#linear-gradient"/>
        <linearGradient id="linear-gradient-3" x1=".299" x2=".653" y1=".005" y2=".967" gradientUnits="objectBoundingBox">
            <stop offset="0" stop-color="#2b355d"/>
            <stop offset=".056" stop-color="#293764"/>
            <stop offset=".291" stop-color="#253e7e"/>
            <stop offset=".501" stop-color="#22438e"/>
            <stop offset=".665" stop-color="#224594"/>
            <stop offset=".758" stop-color="#3b57a6"/>
            <stop offset=".818" stop-color="#4760ae"/>
            <stop offset=".87" stop-color="#455eab"/>
            <stop offset=".903" stop-color="#3e57a2"/>
            <stop offset=".931" stop-color="#334c93"/>
            <stop offset=".956" stop-color="#243d7f"/>
            <stop offset=".97" stop-color="#193270"/>
        </linearGradient>
        <linearGradient id="linear-gradient-4" x1=".471" x2=".55" y1=".004" y2=".982" gradientUnits="objectBoundingBox">
            <stop offset="0" stop-color="#3ba0ff"/>
            <stop offset=".391" stop-color="#78bdfe"/>
            <stop offset=".409" stop-color="#3ba0ff"/>
            <stop offset=".449" stop-color="#3ba0ff"/>
            <stop offset=".623" stop-color="#1582e8"/>
            <stop offset=".669" stop-color="#51a9fb"/>
            <stop offset=".716" stop-color="#3ba0ff"/>
            <stop offset=".753" stop-color="#3ba0ff"/>
            <stop offset=".934" stop-color="#3ba0ff"/>
            <stop offset=".961" stop-color="#2795fc"/>
            <stop offset="1" stop-color="#3ba0ff"/>
        </linearGradient>
        <filter id="합치기_2" width="119.585" height="79.158" x="17.414" y="84.298" filterUnits="userSpaceOnUse">
            <feOffset dy="-1"/>
            <feGaussianBlur result="blur" stdDeviation="2.5"/>
            <feFlood flood-color="#303236"/>
            <feComposite in2="blur" operator="in"/>
            <feComposite in="SourceGraphic"/>
        </filter>
        <style>
            .cls-1{fill:none}.cls-4{fill:#3ba0ff}.cls-7{fill:#00519c}.cls-8{fill:#0c1734}.cls-10{fill:#3f5cae}.cls-11{fill:#fff}.cls-12{fill:#2a3c75}.cls-13{mix-blend-mode:multiply}.cls-13,.cls-76{isolation:isolate}.cls-14{fill:#f8f8fb}.cls-15{fill:#f2f3f8}.cls-16{fill:#ededf6}.cls-17{fill:#e7e8f3}.cls-18{fill:#e1e3ef}.cls-19{fill:#dbdeec}.cls-20{fill:#d5d8e9}.cls-21{fill:#cfd3e7}.cls-22{fill:#c9cde4}.cls-23{fill:#f9f9fc}.cls-24{fill:#f5f6fb}.cls-25{fill:#f0f1fa}.cls-26{fill:#ebedf8}.cls-27{fill:#e6e9f7}.cls-28{fill:#e2e5f5}.cls-29{fill:#dde0f3}.cls-30{fill:#d9ddf2}.cls-31{fill:#d4d8f0}.cls-32{fill:#1a2852}.cls-33{fill:#5f7bd7}.cls-34{fill:#4765bd}.cls-35{fill:#2e3e72}.cls-36{fill:#2c3b6e}.cls-37{fill:#2a396a}.cls-38{fill:#273665}.cls-39{fill:#253360}.cls-40{fill:#23305c}.cls-41{fill:#212d58}.cls-42{fill:#1e2b52}.cls-43{fill:#1c284e}.cls-44{fill:#1a254a}.cls-46{fill:#3e5091}.cls-53{fill:#fcfcff}.cls-54{fill:#fafbff}.cls-55{fill:#f7f8ff}.cls-56{fill:#f5f6ff}.cls-57{fill:#f2f4ff}.cls-58{fill:#f0f3ff}.cls-59{fill:#edf0ff}.cls-60{fill:#ebeeff}.cls-61{fill:#e9edff}.cls-63{fill:#5d7bd9}.cls-65{fill:#3e5397}.cls-66{fill:#3a4f8f}.cls-67{fill:#384b88}.cls-68{fill:#344781}.cls-69{fill:#30427b}.cls-70{fill:#2a396b}.cls-71{fill:#263563}.cls-72{fill:#1f2c55}.cls-88{fill:#758ae1}
        </style>
    </defs>
    <g id="icon" transform="translate(-939 -105)">
        <g id="icon-2" opacity="0.5" transform="translate(942.773 105)">
            <g id="그룹_6" opacity="0.3" transform="translate(-0.773)">
                <g id="그룹_1" transform="translate(182.829 99.512)">
                    <path id="패스_1" d="M535.205 75.771L523.448 64a80.094 80.094 0 0 1-8.813 25.892l3.213 3.221a12.268 12.268 0 0 0 17.357-17.342z" class="cls-4" transform="translate(-514.635 -64)"/>
                </g>
                <g id="그룹_3" transform="translate(9.846)">
                    <g id="그룹_2">
                        <path id="패스_2" d="M523.179 82.413a1.693 1.693 0 0 0 1.208-.49 1.723 1.723 0 0 0 0-2.408l-21.023-21.076a33.241 33.241 0 0 0-2.416 2.46l21.038 21.031a1.66 1.66 0 0 0 1.193.483z" class="cls-4" transform="translate(-433.289 -3.428)"/>
                        <path id="패스_3" d="M493.985 56.49a1.706 1.706 0 0 0 0 3.411h19.962c.615-1.157 1.252-2.291 1.933-3.411z" class="cls-4" transform="translate(-492.287 -17.294)"/>
                        <path id="패스_4" d="M539.4 70.757l-13.55-13.586a1.66 1.66 0 0 0-1.3-.681h-27.371c-.681 1.12-1.318 2.255-1.933 3.411h28.424l13.315 13.315a33.306 33.306 0 0 1 2.415-2.459z" class="cls-4" transform="translate(-473.585 -17.044)"/>
                        <path id="패스_5" d="M574.176 51.48a79.445 79.445 0 0 0-48.708 16.6h9.043a24.026 24.026 0 0 1 18.437 8.62l19.743 19.835c.49-.016.98-.039 1.485-.039a35.487 35.487 0 1 1-35.325 35.483c0-.172.008-.352.008-.531L524.286 116.8h-28.8a81.386 81.386 0 0 0-1.438 15.179c0 44.459 35.871 80.5 80.13 80.5s80.116-36.045 80.116-80.5c-.002-44.462-35.873-80.499-80.118-80.499z" class="cls-4" transform="translate(-481.17 -51.48)"/>
                    </g>
                </g>
                <g id="그룹_4" transform="translate(0 29.005)">
                    <path id="패스_6" fill="#3ba0ff" fill-rule="evenodd" d="M595.826 93.485l-33.812-33.8a12.172 12.172 0 0 0-9.524-4.634h-49.273a12.269 12.269 0 1 0 0 24.537h44.016l31.243 31.243a12.265 12.265 0 1 0 17.349-17.342z" transform="translate(-490.942 -55.047)"/>
                </g>
                <g id="그룹_5" transform="translate(102.844 103.308)"/>
            </g>
        </g>
        <g filter="url(#합치기_2)" transform="matrix(1, 0, 0, 1, 939, 105)">
            <path id="합치기_2-2" fill="#6d6e71" stroke="rgba(0,0,0,0)" stroke-miterlimit="10" d="M-3261.511-673.379a3.24 3.24 0 0 0 .812-.93 4.98 4.98 0 0 0 .538-1.33 6.719 6.719 0 0 0 .2-1.642l.013-10.217a13.992 13.992 0 0 0-.312-2.937 13.165 13.165 0 0 0-.883-2.667 10.085 10.085 0 0 0-1.36-2.2 6.786 6.786 0 0 0-1.741-1.528l-16.71-9.9-10.346-18.925a8.82 8.82 0 0 0-.813-1.212 6.525 6.525 0 0 0-.924-.942 4.734 4.734 0 0 0-1.007-.641 3.719 3.719 0 0 0-1.058-.315l39.675-3.841a3.717 3.717 0 0 1 1.069.3 4.771 4.771 0 0 1 1.016.617 6.336 6.336 0 0 1 .93.905 8.238 8.238 0 0 1 .818 1.17l10.372 18.275 16.842 9.492a6.635 6.635 0 0 1 1.75 1.472 9.419 9.419 0 0 1 1.363 2.118 11.894 11.894 0 0 1 .878 2.576 12.837 12.837 0 0 1 .3 2.839l-.063 9.886a6.388 6.388 0 0 1-.208 1.589 4.7 4.7 0 0 1-.551 1.291 3.219 3.219 0 0 1-.823.905 2.319 2.319 0 0 1-1.029.426l-39.759 5.8a2.2 2.2 0 0 0 1.011-.434zm-61.658-59.086c-.081-.012-.164-.019-.243-.026s-.162-.009-.241-.012-.16 0-.241 0-.158.007-.238.013l39.3-3.6c.081-.009.162-.013.241-.016s.164 0 .243 0 .163 0 .245.01.164.013.246.025l28.425 3.467-39.675 3.841z" opacity="0.2" transform="translate(3349.09 829.41)"/>
        </g>
        <g id="그룹_572" transform="translate(877.155 66.255)">
            <path id="패스_1085" d="M105.913 161.414a16.194 16.194 0 0 1 .324-1.8c.016-.07.024-.148.042-.217a13.91 13.91 0 0 1 .543-1.694c.063-.161.138-.306.206-.462.161-.363.329-.715.514-1.044.1-.167.195-.324.3-.482a9.11 9.11 0 0 1 .6-.825c.11-.136.219-.274.334-.4a7.34 7.34 0 0 1 .769-.713c.1-.078.185-.17.282-.24a5.839 5.839 0 0 1 1.164-.663c.084-.036.175-.049.261-.081a5.174 5.174 0 0 1 1.158-.3c-40.875 5.153-40.387 3.773-42.948 5.907-2.687 2.239-3.528 6.827-3.5 10.23l.011.355 39.813-5.3a18.6 18.6 0 0 1 .118-2.178z" class="cls-7" transform="translate(2.556 12.707)"/>
            <g id="그룹_530" transform="translate(69.374 170.186)">
                <path id="패스_1086" d="M76.328 172.746a4.191 4.191 0 0 1-1.57 1.4 3.006 3.006 0 0 1-1.923.25 4.2 4.2 0 0 1-1.93-1 7.518 7.518 0 0 1-1.581-2 11.312 11.312 0 0 1-1.073-2.718 13.174 13.174 0 0 1-.413-3.159 11.469 11.469 0 0 1 .36-3.018 7.494 7.494 0 0 1 1.031-2.332 4.255 4.255 0 0 1 1.555-1.424 3.022 3.022 0 0 1 1.923-.284 4.109 4.109 0 0 1 1.936.968 7.437 7.437 0 0 1 1.6 2 11.3 11.3 0 0 1 1.093 2.74 13.148 13.148 0 0 1 .417 3.194 11.461 11.461 0 0 1-.37 3.047 7.446 7.446 0 0 1-1.055 2.336z" class="cls-8" transform="translate(-65.65 -153.794)"/>
                <path id="패스_1087" fill="url(#linear-gradient)" d="M86.42 168.49c.018 3.681-1.161 8.3-4.351 9.843a4.19 4.19 0 0 1-1.409.425l-.2.029-7.49 1.013a5.9 5.9 0 0 0 4.078-3.172c1.868-3.318 1.722-8.194.924-11.511-.978-4.133-3.969-8.991-7.939-8.519l8.845-1.033a.756.756 0 0 1 .2.018c4.804.817 7.305 7.917 7.342 12.907z" transform="translate(-64.285 -155.566)"/>
                <g id="그룹_527" transform="translate(2.796 4.623)">
                    <path id="패스_1088" d="M73.081 173.656c2.163.422 3.657-1.563 4.24-3.718a11.739 11.739 0 0 0-.044-5.821 8.8 8.8 0 0 0-2.51-4.419 3.2 3.2 0 0 0-3.6-.639c-2.041 1.033-2.768 4.007-2.747 6.319a11.609 11.609 0 0 0 1.386 5.482 5.281 5.281 0 0 0 3.275 2.8z" class="cls-10" transform="translate(-68.085 -158.211)"/>
                    <path id="패스_1089" d="M69.607 160.743c-.071.161-.138.328-.2.5s-.115.352-.164.537-.092.375-.13.568-.07.394-.1.6l2.747.984-2.157-3.185z" class="cls-11" transform="translate(-67.713 -156.971)"/>
                    <path id="패스_1090" d="M74.558 161.533l-2.145 2.413 2.765.029c-.029-.214-.063-.428-.1-.637s-.086-.418-.138-.623-.109-.407-.172-.6-.133-.391-.206-.579z" class="cls-11" transform="translate(-65.602 -156.48)"/>
                    <path id="패스_1091" d="M71.617 169.085l.261-4.342-1.706 3.094c.109.136.221.264.334.384s.232.232.353.336a4.073 4.073 0 0 0 .37.289 4.158 4.158 0 0 0 .388.24z" class="cls-11" transform="translate(-66.995 -154.485)"/>
                    <path id="패스_1092" d="M71.539 159.226a2.608 2.608 0 0 0-.379.1 2.806 2.806 0 0 0-.363.149 3.221 3.221 0 0 0-.678.457l1.754 3.775-.334-4.479z" class="cls-11" transform="translate(-67.028 -157.914)"/>
                    <path id="패스_1093" d="M72.253 169.322a2.86 2.86 0 0 0 .389-.081 2.572 2.572 0 0 0 .371-.141 2.75 2.75 0 0 0 .355-.2 3.054 3.054 0 0 0 .332-.258l-1.772-3.767.324 4.446z" class="cls-11" transform="translate(-65.903 -154.402)"/>
                    <path id="패스_1094" d="M72.162 159.425l-.255 4.365 1.711-3.159c-.11-.133-.224-.258-.339-.375s-.237-.227-.358-.328a4.212 4.212 0 0 0-.373-.279 3.914 3.914 0 0 0-.386-.225z" class="cls-11" transform="translate(-65.917 -157.79)"/>
                    <path id="패스_1095" d="M74.615 167.342c.068-.157.133-.323.191-.495s.114-.35.161-.535.091-.376.128-.571.068-.4.094-.6l-2.761-.981 2.187 3.183z" class="cls-11" transform="translate(-65.593 -154.848)"/>
                    <path id="패스_1096" d="M69.648 166.215l2.108-2.358-2.718-.047c.028.212.062.423.1.631s.084.413.136.616.107.4.169.592.13.383.2.566z" class="cls-11" transform="translate(-67.7 -155.065)"/>
                    <path id="패스_1097" d="M73.083 158.466a4.109 4.109 0 0 1 1.936.968 7.437 7.437 0 0 1 1.6 2 11.3 11.3 0 0 1 1.093 2.74 13.147 13.147 0 0 1 .417 3.194 11.4 11.4 0 0 1-.37 3.047 7.481 7.481 0 0 1-1.052 2.335 4.215 4.215 0 0 1-1.57 1.4 3.012 3.012 0 0 1-1.925.25 4.2 4.2 0 0 1-1.93-1 7.518 7.518 0 0 1-1.581-2 11.311 11.311 0 0 1-1.073-2.718 13.174 13.174 0 0 1-.413-3.159 11.469 11.469 0 0 1 .36-3.018 7.494 7.494 0 0 1 1.031-2.332 4.255 4.255 0 0 1 1.555-1.424 3.021 3.021 0 0 1 1.922-.283zm-3.483 3.622c-.073.159-.139.326-.2.5s-.115.352-.164.535-.092.375-.131.569-.07.392-.1.6l2.747.984-2.152-3.188zm7.06 1.281l-2.144 2.411 2.763.031c-.028-.216-.062-.428-.1-.639s-.086-.418-.138-.623-.11-.405-.174-.6-.131-.389-.206-.577zm-4.334 9.546l.261-4.342-1.7 3.094c.109.136.219.266.334.386s.232.232.352.336a4.357 4.357 0 0 0 .37.287 3.913 3.913 0 0 0 .388.24zm-.109-13.288a2.795 2.795 0 0 0-.744.248 3.024 3.024 0 0 0-.347.2 3.422 3.422 0 0 0-.329.253l1.754 3.775-.334-4.479zm1.839 13.608a2.421 2.421 0 0 0 .388-.081 2.666 2.666 0 0 0 .373-.141 2.845 2.845 0 0 0 .353-.2 3.262 3.262 0 0 0 .334-.256l-1.772-3.768.324 4.446zm-.107-13.283l-.253 4.365 1.709-3.16c-.109-.131-.222-.256-.339-.373a4.836 4.836 0 0 0-.358-.329 4.527 4.527 0 0 0-.373-.277 3.734 3.734 0 0 0-.386-.225zm2.778 10.858c.07-.157.133-.321.193-.493s.112-.352.161-.537.091-.375.128-.571.068-.4.092-.6l-2.761-.983 2.187 3.183zm-7.073-1.344l2.108-2.358-2.719-.047q.044.319.1.632c.041.208.086.413.136.615s.109.4.17.593.13.381.2.564z" class="cls-12" transform="translate(-68.213 -158.417)"/>
                </g>
                <g id="그룹_528" class="cls-13" transform="translate(5.484 11.252)">
                    <path id="패스_1098" d="M70.927 162.505a1.5 1.5 0 0 0-.761.691c-1.046 2.046.919 3.572 2.123 2.03z" class="cls-11" transform="translate(-69.87 -162.505)"/>
                    <path id="패스_1099" d="M70.909 162.505a1.512 1.512 0 0 0-.735.7c-.991 2.058.929 3.509 2.1 2.022z" class="cls-14" transform="translate(-69.852 -162.505)"/>
                    <path id="패스_1100" d="M70.89 162.505a1.528 1.528 0 0 0-.707.705c-.936 2.072.936 3.447 2.069 2.016z" class="cls-15" transform="translate(-69.833 -162.505)"/>
                    <path id="패스_1101" d="M70.872 162.505a1.547 1.547 0 0 0-.681.713c-.88 2.084.945 3.382 2.043 2.007z" class="cls-16" transform="translate(-69.815 -162.505)"/>
                    <path id="패스_1102" d="M70.854 162.505a1.584 1.584 0 0 0-.655.72c-.825 2.1.953 3.321 2.017 2z" class="cls-17" transform="translate(-69.797 -162.505)"/>
                    <path id="패스_1103" d="M70.836 162.505a1.621 1.621 0 0 0-.629.728c-.769 2.11.962 3.258 1.991 1.993z" class="cls-18" transform="translate(-69.78 -162.505)"/>
                    <path id="패스_1104" d="M70.818 162.505a1.658 1.658 0 0 0-.6.735c-.715 2.124.97 3.194 1.964 1.986z" class="cls-19" transform="translate(-69.762 -162.505)"/>
                    <path id="패스_1105" d="M70.8 162.505a1.7 1.7 0 0 0-.576.743c-.66 2.136.978 3.131 1.938 1.978z" class="cls-20" transform="translate(-69.744 -162.505)"/>
                    <path id="패스_1106" d="M70.784 162.505a1.777 1.777 0 0 0-.55.749c-.6 2.15.986 3.07 1.912 1.972z" class="cls-21" transform="translate(-69.727 -162.505)"/>
                    <path id="패스_1107" d="M70.767 162.505a1.837 1.837 0 0 0-.524.757c-.548 2.161 1 3 1.886 1.964z" class="cls-22" transform="translate(-69.71 -162.505)"/>
                </g>
                <g id="그룹_529" class="cls-13" transform="translate(3.392 3.942)">
                    <path id="패스_1108" d="M72.167 158a4.16 4.16 0 0 0-3.587 2.442 2.94 2.94 0 0 1 2.826 0c3.167 1.6 6.381 9.684 2.748 14.882a9.618 9.618 0 0 0 4.313-7.115c.173-4.501-2.349-10.409-6.3-10.209z" class="cls-11" transform="translate(-68.58 -157.997)"/>
                    <path id="패스_1109" d="M72.139 158a3.968 3.968 0 0 0-3.515 2.283 3.131 3.131 0 0 1 2.922.071c3.167 1.6 6.381 9.677 2.581 14.965a9.618 9.618 0 0 0 4.313-7.115c.173-4.496-2.349-10.404-6.301-10.204z" class="cls-23" transform="translate(-68.553 -157.997)"/>
                    <path id="패스_1110" d="M72.111 158a3.783 3.783 0 0 0-3.442 2.124 3.335 3.335 0 0 1 3.016.148c3.167 1.6 6.381 9.671 2.414 15.048a9.618 9.618 0 0 0 4.313-7.115c.173-4.497-2.349-10.405-6.301-10.205z" class="cls-24" transform="translate(-68.525 -157.997)"/>
                    <path id="패스_1111" d="M72.084 158a3.615 3.615 0 0 0-3.371 1.965 3.555 3.555 0 0 1 3.112.224c3.167 1.6 6.382 9.664 2.247 15.13a9.618 9.618 0 0 0 4.313-7.115c.172-4.496-2.349-10.404-6.301-10.204z" class="cls-25" transform="translate(-68.497 -157.997)"/>
                    <path id="패스_1112" d="M72.057 158c-2.671.136-3.3 1.808-3.3 1.808.835-.524 2.328-.148 3.207.3 3.167 1.6 6.382 9.659 2.08 15.215a9.618 9.618 0 0 0 4.313-7.115c.173-4.5-2.349-10.408-6.3-10.208z" class="cls-26" transform="translate(-68.47 -157.997)"/>
                    <path id="패스_1113" d="M72.029 158c-2.671.136-3.227 1.649-3.227 1.649.835-.524 2.423-.071 3.3.373 3.168 1.6 6.382 9.653 1.913 15.3a9.618 9.618 0 0 0 4.313-7.115C78.5 163.708 75.98 157.8 72.029 158z" class="cls-27" transform="translate(-68.442 -157.997)"/>
                    <path id="패스_1114" d="M72 158c-2.671.136-3.155 1.49-3.155 1.49.835-.524 2.518 0 3.4.449 3.168 1.6 6.384 9.645 1.746 15.38a9.618 9.618 0 0 0 4.313-7.115C78.475 163.708 75.953 157.8 72 158z" class="cls-28" transform="translate(-68.415 -157.997)"/>
                    <path id="패스_1115" d="M71.974 158c-2.671.136-3.084 1.331-3.084 1.331.835-.522 2.614.079 3.493.524 3.168 1.6 6.384 9.64 1.579 15.464a9.618 9.618 0 0 0 4.313-7.115c.172-4.496-2.349-10.404-6.301-10.204z" class="cls-29" transform="translate(-68.387 -157.997)"/>
                    <path id="패스_1116" d="M71.946 158c-2.671.136-3.011 1.172-3.011 1.172.835-.522 2.708.156 3.587.6 3.168 1.6 6.384 9.633 1.412 15.547a9.618 9.618 0 0 0 4.313-7.115c.172-4.496-2.347-10.404-6.301-10.204z" class="cls-30" transform="translate(-68.359 -157.997)"/>
                    <path id="패스_1117" d="M71.919 158c-2.671.136-2.94 1.013-2.94 1.013.835-.522 2.8.232 3.682.676 3.168 1.6 6.386 9.627 1.245 15.63a9.618 9.618 0 0 0 4.313-7.115c.173-4.496-2.349-10.404-6.3-10.204z" class="cls-31" transform="translate(-68.332 -157.997)"/>
                </g>
                <path id="패스_1118" d="M73.507 156.254c-6.379-1.1-9.348 10.778-4.882 18.751 1.727 3.083 4.774 5.494 7.864 4.008 3.191-1.534 4.381-6.17 4.354-9.843-.036-4.99-2.528-12.085-7.336-12.916zm3.66 17.88a4.191 4.191 0 0 1-1.57 1.4 3.006 3.006 0 0 1-1.923.25 4.2 4.2 0 0 1-1.93-1 7.518 7.518 0 0 1-1.581-2 11.312 11.312 0 0 1-1.073-2.718 13.175 13.175 0 0 1-.413-3.159 11.469 11.469 0 0 1 .36-3.018 7.494 7.494 0 0 1 1.031-2.332 4.255 4.255 0 0 1 1.555-1.424 3.022 3.022 0 0 1 1.923-.284 4.109 4.109 0 0 1 1.936.968 7.437 7.437 0 0 1 1.6 2 11.3 11.3 0 0 1 1.093 2.74 13.147 13.147 0 0 1 .417 3.194 11.462 11.462 0 0 1-.37 3.047 7.446 7.446 0 0 1-1.055 2.337z" class="cls-32" transform="translate(-66.488 -155.182)"/>
                <path id="패스_1119" d="M71.392 162.422c.615.114.95 1.018.957 1.707 0 .571-.225 1.244-.684 1.351a2.038 2.038 0 0 1-.508.063c-.462-.086-.5-.691-.624-1.156-.2-.8-.211-1.766.357-1.921a1.97 1.97 0 0 1 .502-.044z" class="cls-33" transform="translate(-64.053 -151.308)"/>
                <path id="패스_1120" d="M71.186 162.455c.613.113.95 1.018.955 1.707 0 .666-.308 1.472-.931 1.356-.462-.088-.765-.631-.884-1.1-.237-.918.088-2.104.86-1.963z" class="cls-34" transform="translate(-64.15 -151.291)"/>
            </g>
            <g id="그룹_531" transform="translate(77.022 141.914)">
                <path id="패스_1121" d="M89.374 139.876l.081 14.462-16.426-2.525a1.614 1.614 0 0 1-.945-.571 3.447 3.447 0 0 1-.64-1.176 4.762 4.762 0 0 1-.238-1.472 3.893 3.893 0 0 1 .268-1.464l2.972-7.235a3.823 3.823 0 0 1 .439-.8 2.694 2.694 0 0 1 .556-.576 1.969 1.969 0 0 1 .644-.323 1.729 1.729 0 0 1 .7-.045z" class="cls-35" transform="translate(-71.205 -138.13)"/>
                <path id="패스_1122" d="M89.131 139.939l.081 14.183-16.112-2.477a1.572 1.572 0 0 1-.926-.558 3.39 3.39 0 0 1-.629-1.153 4.649 4.649 0 0 1-.233-1.445 3.772 3.772 0 0 1 .263-1.435l2.914-7.1a3.8 3.8 0 0 1 .431-.79 2.63 2.63 0 0 1 .546-.564 1.907 1.907 0 0 1 .631-.316 1.687 1.687 0 0 1 .688-.045z" class="cls-36" transform="translate(-71.137 -138.071)"/>
                <path id="패스_1123" d="M88.89 140l.078 13.9-15.792-2.427a1.544 1.544 0 0 1-.908-.548 3.3 3.3 0 0 1-.616-1.13 4.51 4.51 0 0 1-.229-1.416 3.721 3.721 0 0 1 .256-1.407l2.857-6.956a3.762 3.762 0 0 1 .423-.773 2.6 2.6 0 0 1 .535-.553 1.876 1.876 0 0 1 .618-.31 1.683 1.683 0 0 1 .675-.045z" class="cls-37" transform="translate(-71.07 -138.01)"/>
                <path id="패스_1124" d="M88.648 140.064l.076 13.624-15.474-2.379a1.5 1.5 0 0 1-.89-.537 3.237 3.237 0 0 1-.6-1.107 4.466 4.466 0 0 1-.225-1.386 3.678 3.678 0 0 1 .253-1.38l2.8-6.815a3.664 3.664 0 0 1 .415-.759 2.568 2.568 0 0 1 .524-.542 1.837 1.837 0 0 1 .606-.3 1.618 1.618 0 0 1 .662-.044z" class="cls-38" transform="translate(-71.002 -137.95)"/>
                <path id="패스_1125" d="M88.4 140.127l.075 13.345-15.156-2.33a1.473 1.473 0 0 1-.871-.527 3.137 3.137 0 0 1-.592-1.085 4.385 4.385 0 0 1-.221-1.359 3.554 3.554 0 0 1 .248-1.349l2.74-6.676a3.584 3.584 0 0 1 .407-.743 2.439 2.439 0 0 1 .514-.532 1.775 1.775 0 0 1 .593-.3 1.6 1.6 0 0 1 .647-.044z" class="cls-39" transform="translate(-70.935 -137.89)"/>
                <path id="패스_1126" d="M88.162 140.19l.073 13.065-14.835-2.282a1.448 1.448 0 0 1-.853-.514 3.1 3.1 0 0 1-.579-1.062 4.272 4.272 0 0 1-.216-1.331 3.509 3.509 0 0 1 .242-1.322l2.684-6.536a3.511 3.511 0 0 1 .4-.726 2.407 2.407 0 0 1 .5-.521 1.759 1.759 0 0 1 .581-.29 1.542 1.542 0 0 1 .634-.042z" class="cls-40" transform="translate(-70.867 -137.83)"/>
                <path id="패스_1127" d="M87.919 140.254l.073 12.786-14.522-2.233a1.42 1.42 0 0 1-.835-.5 3.041 3.041 0 0 1-.566-1.039 4.18 4.18 0 0 1-.211-1.3 3.4 3.4 0 0 1 .237-1.294l2.627-6.4a3.3 3.3 0 0 1 .389-.712 2.376 2.376 0 0 1 .491-.509 1.72 1.72 0 0 1 .569-.284 1.5 1.5 0 0 1 .619-.042z" class="cls-41" transform="translate(-70.799 -137.77)"/>
                <path id="패스_1128" d="M87.676 140.315l.071 12.507-14.2-2.184a1.377 1.377 0 0 1-.816-.493 2.983 2.983 0 0 1-.556-1.017 4.087 4.087 0 0 1-.2-1.273 3.343 3.343 0 0 1 .23-1.265l2.57-6.257a3.258 3.258 0 0 1 .381-.7 2.345 2.345 0 0 1 .48-.5 1.716 1.716 0 0 1 .558-.279 1.493 1.493 0 0 1 .606-.039z" class="cls-42" transform="translate(-70.731 -137.71)"/>
                <path id="패스_1129" d="M87.436 140.378L87.5 152.6l-13.887-2.134a1.367 1.367 0 0 1-.8-.482 2.924 2.924 0 0 1-.543-.994 4.064 4.064 0 0 1-.2-1.245 3.3 3.3 0 0 1 .227-1.237l2.512-6.116a3.232 3.232 0 0 1 .373-.681 2.281 2.281 0 0 1 .47-.486 1.661 1.661 0 0 1 .543-.272 1.488 1.488 0 0 1 .593-.039z" class="cls-43" transform="translate(-70.664 -137.65)"/>
                <path id="패스_1130" d="M87.193 140.442l.066 11.947L73.69 150.3a1.328 1.328 0 0 1-.78-.47 2.86 2.86 0 0 1-.53-.971 3.979 3.979 0 0 1-.2-1.216 3.187 3.187 0 0 1 .222-1.21l2.453-5.975a3.208 3.208 0 0 1 .365-.666 2.212 2.212 0 0 1 .459-.475 1.638 1.638 0 0 1 .532-.266 1.446 1.446 0 0 1 .579-.039z" class="cls-44" transform="translate(-70.597 -137.59)"/>
            </g>
            <g id="그룹_533" transform="translate(77.022 141.914)">
                <g id="그룹_532" clip-path="url(#clip-path)">
                    <path id="사각형_870" d="M0 0H21.08V1.266H0z" class="cls-46" transform="translate(-0.341 12.674) rotate(-60.229)"/>
                    <path id="사각형_871" d="M0 0H24.19V4.09H0z" class="cls-46" transform="translate(0.399 16.857) rotate(-60.229)"/>
                </g>
            </g>
            <path id="패스_1132" fill="#7dc0ff" d="M115.686 132.079q-.126-.017-.253-.024c-.083-.006-.167-.01-.25-.011h-.25c-.083 0-.165.008-.248.016l-40.28 3.64c.079-.006.162-.011.243-.015s.164 0 .246 0 .164 0 .246.011.165.015.248.026l28.764 3.741 40.666-3.882z" transform="translate(7.806 0)"/>
            <g id="그룹_534" transform="translate(98.668 144.136)">
                <path id="패스_1133" d="M97.711 141.309a1.972 1.972 0 0 1 .621.195 2.725 2.725 0 0 1 .585.4 3.546 3.546 0 0 1 .527.584 4.867 4.867 0 0 1 .448.749l4.766 9.828a6.378 6.378 0 0 1 .149 2.356 1.835 1.835 0 0 1-.55 1.114 1.379 1.379 0 0 1-.739.328 1.575 1.575 0 0 1-.42 0L84.63 154.02l-.076-14.52z" class="cls-35" transform="translate(-84.554 -139.501)"/>
                <path id="패스_1134" d="M97.557 141.388a1.969 1.969 0 0 1 .6.19 2.676 2.676 0 0 1 .574.392 3.607 3.607 0 0 1 .516.571 4.653 4.653 0 0 1 .436.733l4.659 9.607a6.181 6.181 0 0 1 .146 2.3 1.8 1.8 0 0 1-.537 1.088 1.345 1.345 0 0 1-.723.321 1.585 1.585 0 0 1-.41 0l-18.054-2.776-.073-14.195z" class="cls-36" transform="translate(-84.466 -139.426)"/>
                <path id="패스_1135" d="M97.4 141.467a1.916 1.916 0 0 1 .592.186 2.591 2.591 0 0 1 .559.381 3.522 3.522 0 0 1 .5.559 4.5 4.5 0 0 1 .426.715l4.552 9.387a6.073 6.073 0 0 1 .144 2.251 1.758 1.758 0 0 1-.525 1.064 1.315 1.315 0 0 1-.707.313 1.507 1.507 0 0 1-.4 0l-17.639-2.713-.073-13.867z" class="cls-37" transform="translate(-84.379 -139.351)"/>
                <path id="패스_1136" d="M97.248 141.547a1.924 1.924 0 0 1 .577.182 2.535 2.535 0 0 1 .546.373 3.435 3.435 0 0 1 .493.546 4.415 4.415 0 0 1 .415.7l4.446 9.166a5.94 5.94 0 0 1 .139 2.2 1.719 1.719 0 0 1-.512 1.038 1.283 1.283 0 0 1-.689.306 1.524 1.524 0 0 1-.392 0L85.046 153.4l-.07-13.541z" class="cls-38" transform="translate(-84.292 -139.277)"/>
                <path id="패스_1137" d="M97.093 141.626a1.886 1.886 0 0 1 .564.178 2.509 2.509 0 0 1 .533.363 3.343 3.343 0 0 1 .48.533 4.339 4.339 0 0 1 .407.683l4.338 8.944a5.824 5.824 0 0 1 .136 2.145 1.669 1.669 0 0 1-.5 1.013 1.261 1.261 0 0 1-.671.3 1.446 1.446 0 0 1-.383 0L85.184 153.2l-.068-13.217z" class="cls-39" transform="translate(-84.205 -139.202)"/>
                <path id="패스_1138" d="M96.937 141.707a1.8 1.8 0 0 1 .551.172 2.451 2.451 0 0 1 .521.355 3.331 3.331 0 0 1 .469.521 4.309 4.309 0 0 1 .4.665l4.231 8.725a5.629 5.629 0 0 1 .133 2.092 1.629 1.629 0 0 1-.488.988 1.2 1.2 0 0 1-.655.29 1.41 1.41 0 0 1-.373 0l-16.4-2.521-.069-12.894z" class="cls-40" transform="translate(-84.117 -139.127)"/>
                <path id="패스_1139" d="M96.783 141.787a1.706 1.706 0 0 1 .537.169 2.335 2.335 0 0 1 .506.345 3.221 3.221 0 0 1 .457.506 4.148 4.148 0 0 1 .386.65l4.125 8.5a5.541 5.541 0 0 1 .13 2.038 1.592 1.592 0 0 1-.477.965 1.187 1.187 0 0 1-.639.282 1.337 1.337 0 0 1-.363 0l-15.983-2.458-.062-12.562z" class="cls-41" transform="translate(-84.03 -139.053)"/>
                <path id="패스_1140" d="M96.628 141.866a1.7 1.7 0 0 1 .522.164 2.347 2.347 0 0 1 .495.337 3.218 3.218 0 0 1 .446.493 3.989 3.989 0 0 1 .375.632l4.018 8.284a5.381 5.381 0 0 1 .126 1.985 1.552 1.552 0 0 1-.464.939 1.149 1.149 0 0 1-.623.276 1.34 1.34 0 0 1-.353 0l-15.57-2.395-.063-12.238z" class="cls-42" transform="translate(-83.942 -138.978)"/>
                <path id="패스_1141" d="M96.474 141.945a1.649 1.649 0 0 1 .508.161 2.26 2.26 0 0 1 .482.328 3.119 3.119 0 0 1 .433.48 3.842 3.842 0 0 1 .366.616l3.909 8.062a5.229 5.229 0 0 1 .123 1.933 1.51 1.51 0 0 1-.451.915 1.124 1.124 0 0 1-.606.268 1.284 1.284 0 0 1-.345 0l-15.153-2.33-.062-11.913z" class="cls-43" transform="translate(-83.855 -138.903)"/>
                <path id="패스_1142" d="M96.318 142.025a1.611 1.611 0 0 1 .495.157 2.137 2.137 0 0 1 .469.318 2.94 2.94 0 0 1 .42.467 3.763 3.763 0 0 1 .357.6l3.8 7.843a5.1 5.1 0 0 1 .118 1.879 1.471 1.471 0 0 1-.438.889 1.09 1.09 0 0 1-.59.261 1.211 1.211 0 0 1-.336 0l-14.734-2.269-.06-11.587z" class="cls-44" transform="translate(-83.768 -138.829)"/>
            </g>
            <g id="그룹_536" transform="translate(98.668 144.136)">
                <g id="그룹_535" clip-path="url(#clip-path-2)">
                    <path id="사각형_872" d="M0 0H24.19V8.166H0z" class="cls-46" transform="translate(4.458 20.909) rotate(-60.229)"/>
                    <path id="사각형_873" d="M0 0H25.091V4.339H0z" class="cls-46" transform="translate(-5.446 18.228) rotate(-60.229)"/>
                </g>
            </g>
            <path id="패스_1144" d="M137.844 166.972a16.2 16.2 0 0 1 .347-1.774c.028-.118.045-.243.076-.358a14.006 14.006 0 0 1 .61-1.776c.065-.157.144-.3.216-.449a11.819 11.819 0 0 1 .587-1.124c.105-.175.219-.337.332-.5a9.7 9.7 0 0 1 .65-.855c.128-.149.258-.3.392-.435a7.993 7.993 0 0 1 .78-.694c.131-.1.256-.216.391-.308a6.7 6.7 0 0 1 1.182-.652c.037-.016.071-.042.109-.057a6.091 6.091 0 0 1 1.5-.394c-9.711 1.242-40.04 5.116-40.708 5.21-3.588.459-5.846 4.031-6.664 7.6-.1.444-.209.83-.277 1.3a28.786 28.786 0 0 0-.157 3.533l40.473-5.91a18.436 18.436 0 0 1 .146-2.275z" class="cls-7" transform="translate(21.982 15.881)"/>
            <g id="그룹_540" transform="translate(120.138 174.845)">
                <path id="패스_1145" fill="url(#linear-gradient-2)" d="M119.256 174.831c0-5.79-3.037-12.88-8.158-13.763a5.557 5.557 0 0 0-.626-.06l-8.73 1.127a6.074 6.074 0 0 1 4.579 1.729 14.289 14.289 0 0 1 4.352 7.328 18.445 18.445 0 0 1 .167 9.006c-.77 3.083-2.643 5.627-5.659 6.489l8.331-1.242a5.152 5.152 0 0 0 .767-.246c3.521-1.546 4.979-6.311 4.977-10.368z" transform="translate(-95.342 -156.842)"/>
                <path id="패스_1146" fill="url(#linear-gradient-3)" d="M138.82 171.8a15.158 15.158 0 0 1-.508 3.952 11.614 11.614 0 0 1-1.341 3.19 7.95 7.95 0 0 1-2.048 2.247 5.73 5.73 0 0 1-2.52 1.052l-7.214 1.064a.974.974 0 0 1 .326-.068 4.223 4.223 0 0 0 1.323-.379c3.444-1.5 4.858-6.146 4.858-10.1 0-5.656-2.954-12.58-7.957-13.431a5.57 5.57 0 0 0-.563-.073l5.873-.762a2.729 2.729 0 0 1 .381-.036 3.109 3.109 0 0 1 .4-.018c.144 0 .271.018.417.018.126.018.271.036.4.055a6.962 6.962 0 0 1 3.19 1.45 11.306 11.306 0 0 1 2.611 2.972 16.078 16.078 0 0 1 1.758 4.1 17.9 17.9 0 0 1 .614 4.767z" transform="translate(-82.02 -158.439)"/>
                <path id="패스_1147" d="M126.577 159.011c4.957.861 7.838 7.787 7.84 13.433 0 3.957-1.412 8.6-4.818 10.109a4.991 4.991 0 0 1-3.047.326 6.786 6.786 0 0 1-3.029-1.539c-2.52-2.129-4.717-6.5-4.73-11.819-.01-3.9 1.727-8.51 5.07-10.094a6.477 6.477 0 0 1 1.816-.469 2.984 2.984 0 0 1 .898.053z" class="cls-32" transform="translate(-84.744 -158.126)"/>
                <g id="그룹_537" transform="translate(2.47 9.084)">
                    <path id="패스_1148" d="M110.007 176.8a7.676 7.676 0 0 1-1.2 2.461 4.6 4.6 0 0 1-1.772 1.464 3.565 3.565 0 0 1-2.165.24 4.862 4.862 0 0 1-2.163-1.08 8.12 8.12 0 0 1-1.763-2.137 11.6 11.6 0 0 1-1.187-2.89 13.147 13.147 0 0 1-.439-3.347 11.345 11.345 0 0 1 .426-3.19 7.756 7.756 0 0 1 1.177-2.457 4.683 4.683 0 0 1 1.759-1.487 3.574 3.574 0 0 1 2.166-.279 4.741 4.741 0 0 1 2.17 1.048 7.98 7.98 0 0 1 1.78 2.131 11.664 11.664 0 0 1 1.2 2.914 13.229 13.229 0 0 1 .443 3.387 11.4 11.4 0 0 1-.432 3.222z" class="cls-8" transform="translate(-99.318 -164.041)"/>
                    <path id="패스_1149" d="M110.418 173.558c0-3.752-1.981-8.424-5.323-9.014-4.905-.866-6.885 7.566-3.71 12.979 1.291 2.2 3.54 3.832 5.79 2.83 2.325-1.034 3.245-4.198 3.243-6.795z" class="cls-10" transform="translate(-98.99 -163.767)"/>
                    <path id="패스_1150" d="M106.746 167.617c.081.2.157.4.227.615s.133.423.19.639.107.438.151.662.079.449.11.678l-3.11-.065 2.432-2.528z" class="cls-11" transform="translate(-96.213 -161.818)"/>
                    <path id="패스_1151" d="M104.07 165.365a4.424 4.424 0 0 1 .433.243c.141.091.281.19.418.3s.269.227.4.352.256.259.379.4l-1.949 3.324.319-4.618z" class="cls-11" transform="translate(-96.563 -163.218)"/>
                    <path id="패스_1152" d="M102.127 165.6a3.388 3.388 0 0 1 .392-.211 3.426 3.426 0 0 1 .413-.154 3.509 3.509 0 0 1 .43-.1l.341 4.746-1.944-4.016a3.348 3.348 0 0 1 .368-.266z" class="cls-11" transform="translate(-97.801 -163.357)"/>
                    <path id="패스_1153" d="M100.615 168.42c.044-.2.094-.405.151-.6s.118-.383.188-.566.146-.357.229-.525l2.4 3.4-3.081-1.075c.032-.214.07-.423.113-.629z" class="cls-11" transform="translate(-98.583 -162.37)"/>
                    <path id="패스_1154" d="M101.179 172.522c-.079-.195-.154-.4-.224-.6s-.13-.415-.186-.629-.105-.433-.148-.653-.079-.444-.11-.67l3.057.083-2.389 2.47z" class="cls-11" transform="translate(-98.576 -160.356)"/>
                    <path id="패스_1155" d="M103.38 175.576a4.585 4.585 0 0 1-.436-.258 4.952 4.952 0 0 1-.417-.31q-.2-.168-.394-.36c-.126-.13-.25-.266-.368-.41l1.943-3.254-.328 4.592z" class="cls-11" transform="translate(-97.797 -159.726)"/>
                    <path id="패스_1156" d="M105.342 175.412a3.1 3.1 0 0 1-.4.206 2.857 2.857 0 0 1-.42.144 2.817 2.817 0 0 1-.438.081l-.331-4.71 1.965 4.012a3.475 3.475 0 0 1-.378.268z" class="cls-11" transform="translate(-96.56 -159.633)"/>
                    <path id="패스_1157" d="M107.312 172.088c-.044.206-.094.409-.151.6s-.118.383-.188.564-.144.353-.225.519l-2.426-3.394 3.1 1.072c-.029.217-.066.43-.109.636z" class="cls-11" transform="translate(-96.208 -160.1)"/>
                    <path id="패스_1158" d="M110.8 173.7a13.157 13.157 0 0 0-.443-3.387 11.665 11.665 0 0 0-1.2-2.914 7.98 7.98 0 0 0-1.78-2.131 4.741 4.741 0 0 0-2.17-1.048 3.574 3.574 0 0 0-2.166.279 4.664 4.664 0 0 0-1.758 1.487 7.724 7.724 0 0 0-1.179 2.457 11.4 11.4 0 0 0-.426 3.19 13.219 13.219 0 0 0 .439 3.347 11.656 11.656 0 0 0 1.187 2.89 8.151 8.151 0 0 0 1.763 2.137 4.87 4.87 0 0 0 2.163 1.08 3.565 3.565 0 0 0 2.165-.24 4.6 4.6 0 0 0 1.772-1.464 7.676 7.676 0 0 0 1.2-2.461 11.4 11.4 0 0 0 .433-3.222zm-1.607-4.247c.081.2.157.405.227.615s.133.423.19.641.107.438.151.662.079.449.11.676l-3.11-.065 2.432-2.528zm-3.026-3.65a4.088 4.088 0 0 1 .433.243 4.5 4.5 0 0 1 .418.3q.2.163.4.35c.131.126.258.259.379.4l-1.947 3.324.318-4.616zm-3.181.1a3.34 3.34 0 0 1 .806-.366 3.234 3.234 0 0 1 .43-.1l.341 4.745-1.944-4.017a3.335 3.335 0 0 1 .368-.264zm-2.294 3.8c.044-.206.094-.405.151-.6s.12-.384.188-.566.146-.358.229-.527l2.4 3.4-3.081-1.073c.032-.214.07-.425.114-.629zm.571 6.115c-.079-.195-.154-.394-.222-.6s-.131-.415-.186-.629-.105-.431-.149-.653-.079-.444-.109-.67l3.057.084-2.39 2.468zm2.98 3.686a4.825 4.825 0 0 1-.436-.259c-.141-.094-.281-.2-.417-.31a5.076 5.076 0 0 1-.392-.36 5.306 5.306 0 0 1-.37-.41l1.943-3.254-.328 4.594zm3.2-.071a3.322 3.322 0 0 1-.4.206 2.983 2.983 0 0 1-.42.144 3.013 3.013 0 0 1-.438.081l-.331-4.71 1.965 4.01a3.285 3.285 0 0 1-.378.269zm2.322-3.791c-.044.206-.094.407-.151.6s-.118.384-.188.564-.144.355-.225.52l-2.426-3.4 3.1 1.073c-.029.216-.066.428-.109.636z" class="cls-12" transform="translate(-99.098 -163.963)"/>
                </g>
                <g id="그룹_538" class="cls-13" transform="translate(4.211 8.978)">
                    <path id="패스_1159" d="M104.037 163.981a4.257 4.257 0 0 0-3.645 2.555 2.906 2.906 0 0 1 2.872 0c3.219 1.675 6.484 10.133 2.794 15.571a10.094 10.094 0 0 0 4.383-7.444c.173-4.71-2.387-10.893-6.404-10.682z" class="cls-11" transform="translate(-100.392 -163.976)"/>
                    <path id="패스_1160" d="M104.009 163.981a4.054 4.054 0 0 0-3.572 2.39 3.1 3.1 0 0 1 2.969.075c3.219 1.675 6.484 10.126 2.624 15.659a10.094 10.094 0 0 0 4.383-7.444c.173-4.708-2.387-10.891-6.404-10.68z" class="cls-23" transform="translate(-100.364 -163.976)"/>
                    <path id="패스_1161" d="M103.981 163.981a3.859 3.859 0 0 0-3.5 2.225 3.3 3.3 0 0 1 3.065.152c3.219 1.675 6.484 10.12 2.453 15.747a10.094 10.094 0 0 0 4.383-7.444c.175-4.708-2.382-10.891-6.401-10.68z" class="cls-24" transform="translate(-100.335 -163.976)"/>
                    <path id="패스_1162" d="M103.953 163.981a3.681 3.681 0 0 0-3.425 2.058 3.519 3.519 0 0 1 3.16.232c3.22 1.677 6.486 10.115 2.285 15.834a10.094 10.094 0 0 0 4.383-7.444c.174-4.708-2.387-10.891-6.403-10.68z" class="cls-25" transform="translate(-100.307 -163.976)"/>
                    <path id="패스_1163" d="M103.925 163.981c-2.713.144-3.352 1.892-3.352 1.892.848-.548 2.364-.154 3.258.311 3.219 1.675 6.486 10.107 2.114 15.92a10.094 10.094 0 0 0 4.383-7.444c.172-4.707-2.387-10.89-6.403-10.679z" class="cls-26" transform="translate(-100.279 -163.976)"/>
                    <path id="패스_1164" d="M103.9 163.981c-2.713.144-3.279 1.725-3.279 1.725.848-.546 2.461-.073 3.355.391 3.219 1.675 6.486 10.1 1.944 16.008a10.094 10.094 0 0 0 4.383-7.444c.171-4.708-2.39-10.891-6.403-10.68z" class="cls-27" transform="translate(-100.252 -163.976)"/>
                    <path id="패스_1165" d="M103.869 163.981c-2.713.144-3.206 1.56-3.206 1.56.848-.548 2.559 0 3.451.469 3.22 1.677 6.488 10.1 1.776 16.1a10.094 10.094 0 0 0 4.383-7.444c.173-4.713-2.388-10.896-6.404-10.685z" class="cls-28" transform="translate(-100.224 -163.976)"/>
                    <path id="패스_1166" d="M103.841 163.981c-2.713.144-3.133 1.393-3.133 1.393.848-.546 2.654.084 3.548.55 3.219 1.675 6.488 10.087 1.605 16.181a10.094 10.094 0 0 0 4.383-7.444c.174-4.708-2.387-10.891-6.403-10.68z" class="cls-29" transform="translate(-100.196 -163.976)"/>
                    <path id="패스_1167" d="M103.813 163.981c-2.713.144-3.06 1.227-3.06 1.227.848-.546 2.752.162 3.645.628 3.219 1.675 6.488 10.081 1.435 16.269a10.094 10.094 0 0 0 4.383-7.444c.174-4.708-2.387-10.891-6.403-10.68z" class="cls-30" transform="translate(-100.168 -163.976)"/>
                    <path id="패스_1168" d="M103.785 163.981c-2.713.144-2.987 1.06-2.987 1.06.848-.546 2.849.243 3.742.707 3.219 1.677 6.488 10.076 1.265 16.356a10.094 10.094 0 0 0 4.383-7.444c.174-4.707-2.388-10.89-6.403-10.679z" class="cls-31" transform="translate(-100.14 -163.976)"/>
                </g>
                <path id="패스_1169" d="M105.778 161.758a5.176 5.176 0 0 0-3.136.418c-3.452 1.625-4.856 6.342-4.847 10.345.013 5.455 2.285 9.938 4.887 12.121a7.039 7.039 0 0 0 3.13 1.578 5.18 5.18 0 0 0 3.147-.334c3.517-1.545 4.978-6.309 4.976-10.365-.001-5.792-3.035-12.881-8.157-13.763zm5.176 16.51a7.676 7.676 0 0 1-1.2 2.461 4.6 4.6 0 0 1-1.772 1.464 3.565 3.565 0 0 1-2.165.24 4.862 4.862 0 0 1-2.163-1.08 8.12 8.12 0 0 1-1.763-2.137 11.6 11.6 0 0 1-1.187-2.89 13.147 13.147 0 0 1-.439-3.347 11.345 11.345 0 0 1 .426-3.19 7.756 7.756 0 0 1 1.177-2.457 4.683 4.683 0 0 1 1.759-1.487 3.574 3.574 0 0 1 2.166-.279 4.741 4.741 0 0 1 2.17 1.048 7.98 7.98 0 0 1 1.78 2.131 11.665 11.665 0 0 1 1.2 2.914 13.228 13.228 0 0 1 .443 3.387 11.4 11.4 0 0 1-.432 3.222z" class="cls-32" transform="translate(-97.795 -156.426)"/>
                <g id="그룹_539" class="cls-13" transform="translate(6.638 16.303)">
                    <path id="패스_1170" d="M103 168.493a1.582 1.582 0 0 0-.8.733c-1.1 2.166.968 3.783 2.233 2.15z" class="cls-11" transform="translate(-101.889 -168.493)"/>
                    <path id="패스_1171" d="M102.981 168.493a1.591 1.591 0 0 0-.772.741c-1.043 2.181.976 3.717 2.205 2.142z" class="cls-14" transform="translate(-101.869 -168.493)"/>
                    <path id="패스_1172" d="M102.961 168.493a1.622 1.622 0 0 0-.744.747c-.984 2.2.986 3.652 2.178 2.136z" class="cls-15" transform="translate(-101.85 -168.493)"/>
                    <path id="패스_1173" d="M102.942 168.493a1.647 1.647 0 0 0-.717.756c-.926 2.208.994 3.584 2.15 2.127z" class="cls-16" transform="translate(-101.831 -168.493)"/>
                    <path id="패스_1174" d="M102.924 168.493a1.684 1.684 0 0 0-.689.764c-.868 2.221 1 3.517 2.123 2.119z" class="cls-17" transform="translate(-101.812 -168.493)"/>
                    <path id="패스_1175" d="M102.9 168.493a1.712 1.712 0 0 0-.662.772c-.809 2.234 1.012 3.451 2.1 2.111z" class="cls-18" transform="translate(-101.793 -168.493)"/>
                    <path id="패스_1176" d="M102.886 168.493a1.769 1.769 0 0 0-.634.778c-.752 2.249 1.02 3.384 2.067 2.1z" class="cls-19" transform="translate(-101.775 -168.493)"/>
                    <path id="패스_1177" d="M102.868 168.493a1.817 1.817 0 0 0-.606.786c-.694 2.264 1.03 3.318 2.04 2.1z" class="cls-20" transform="translate(-101.756 -168.493)"/>
                    <path id="패스_1178" d="M102.85 168.493a1.889 1.889 0 0 0-.579.795c-.636 2.277 1.038 3.25 2.012 2.088z" class="cls-21" transform="translate(-101.738 -168.493)"/>
                    <path id="패스_1179" d="M102.831 168.493a1.941 1.941 0 0 0-.55.8c-.579 2.29 1.046 3.183 1.983 2.08z" class="cls-22" transform="translate(-101.72 -168.493)"/>
                </g>
                <path id="패스_1180" d="M103.49 168.4c.645.12 1 1.078 1.005 1.808 0 .6-.237 1.318-.718 1.433a2.256 2.256 0 0 1-.535.065c-.486-.091-.53-.73-.657-1.223-.216-.846-.222-1.871.375-2.037a2.1 2.1 0 0 1 .53-.046z" class="cls-33" transform="translate(-94.901 -152.248)"/>
                <path id="패스_1181" d="M103.272 168.441c.645.12 1 1.078 1.005 1.808 0 .707-.324 1.56-.979 1.437-.486-.092-.8-.668-.931-1.161-.248-.974.093-2.235.905-2.084z" class="cls-34" transform="translate(-95.003 -152.23)"/>
            </g>
            <path id="패스_1182" fill="url(#linear-gradient-4)" d="M169.329 171.542a12.127 12.127 0 0 0-.9-2.6 9.578 9.578 0 0 0-1.4-2.14 6.811 6.811 0 0 0-1.8-1.487l-17.261-9.593-10.624-18.472a8.382 8.382 0 0 0-.837-1.182 6.39 6.39 0 0 0-.953-.916 4.915 4.915 0 0 0-1.041-.623 3.95 3.95 0 0 0-1.1-.3l-40.666 3.882a3.79 3.79 0 0 1 1.085.318 4.911 4.911 0 0 1 1.033.649 6.556 6.556 0 0 1 .947.95 8.8 8.8 0 0 1 .833 1.224l10.6 19.126 17.126 10a6.9 6.9 0 0 1 1.785 1.545 10.151 10.151 0 0 1 1.395 2.221 12.98 12.98 0 0 1 .9 2.7 13.911 13.911 0 0 1 .321 2.967l-.013 10.326a6.689 6.689 0 0 1-.2 1.659 5.012 5.012 0 0 1-.551 1.344 3.289 3.289 0 0 1-.832.939 2.3 2.3 0 0 1-1.041.441l40.754-5.862a2.391 2.391 0 0 0 1.052-.431 3.331 3.331 0 0 0 .845-.915 4.744 4.744 0 0 0 .564-1.3 6.29 6.29 0 0 0 .211-1.605l.066-9.992a12.819 12.819 0 0 0-.298-2.873z" transform="translate(19.208 1.357)"/>
            <g id="그룹_556" transform="translate(152.462 177.393)">
                <path id="패스_1183" d="M136.906 167.7c1.6-.224 2.687-2.186 2.7-4.034.011-1.814-1.046-3.5-2.656-3.29s-2.7 2.189-2.711 4.021c-.008 1.808 1.03 3.532 2.669 3.3z" class="cls-7" transform="translate(-107.469 -159.797)"/>
                <path id="패스_1184" d="M120.531 170.048c1.678-.234 2.8-2.243 2.805-4.13.006-2.183-1.346-3.546-2.789-3.355-1.677.224-2.815 2.225-2.818 4.119 0 1.915 1.143 3.6 2.8 3.366z" class="cls-7" transform="translate(-117.729 -158.435)"/>
                <g id="그룹_543" transform="translate(26.768 0.558)">
                    <g id="그룹_542" clip-path="url(#clip-path-3)">
                        <g id="그룹_541" transform="translate(-1.148 0.203)">
                            <path id="패스_1185" d="M136.2 167.822c1.6-.224 2.687-2.186 2.7-4.034.01-1.814-1.048-3.5-2.656-3.29s-2.7 2.189-2.711 4.021c-.01 1.808 1.03 3.532 2.669 3.3z" class="cls-11" transform="translate(-133.529 -160.48)"/>
                            <path id="패스_1186" d="M136.13 167.693c1.56-.217 2.619-2.131 2.63-3.931.01-1.767-1.02-3.417-2.59-3.207s-2.632 2.134-2.641 3.919c-.01 1.764 1 3.442 2.6 3.219z" class="cls-53" transform="translate(-133.529 -160.444)"/>
                            <path id="패스_1187" d="M136.063 167.565c1.518-.211 2.549-2.076 2.56-3.828.01-1.722-.994-3.327-2.521-3.125s-2.564 2.079-2.573 3.819c-.008 1.717.978 3.352 2.534 3.134z" class="cls-54" transform="translate(-133.529 -160.408)"/>
                            <path id="패스_1188" d="M136 167.436c1.479-.206 2.483-2.02 2.492-3.728.01-1.675-.966-3.238-2.455-3.039s-2.494 2.022-2.5 3.715c-.008 1.672.952 3.263 2.466 3.052z" class="cls-55" transform="translate(-133.529 -160.372)"/>
                            <path id="패스_1189" d="M135.927 167.308c1.438-.2 2.414-1.965 2.424-3.626.01-1.63-.94-3.149-2.387-2.956s-2.426 1.967-2.436 3.614c-.008 1.625.926 3.172 2.4 2.967z" class="cls-56" transform="translate(-133.529 -160.337)"/>
                            <path id="패스_1190" d="M135.859 167.178c1.4-.195 2.346-1.908 2.356-3.522.01-1.584-.915-3.06-2.319-2.873s-2.359 1.912-2.367 3.512c-.008 1.579.9 3.082 2.33 2.883z" class="cls-57" transform="translate(-133.529 -160.301)"/>
                            <path id="패스_1191" d="M135.793 167.05c1.356-.188 2.277-1.853 2.286-3.42.01-1.537-.887-2.972-2.252-2.789s-2.29 1.855-2.3 3.408c-.008 1.534.874 2.995 2.264 2.8z" class="cls-58" transform="translate(-133.529 -160.265)"/>
                            <path id="패스_1192" d="M135.725 166.922c1.315-.183 2.21-1.8 2.218-3.318.01-1.492-.861-2.883-2.184-2.706s-2.221 1.8-2.23 3.308c-.008 1.487.846 2.9 2.2 2.716z" class="cls-59" transform="translate(-133.529 -160.229)"/>
                            <path id="패스_1193" d="M135.656 166.794c1.276-.178 2.142-1.743 2.15-3.215.01-1.446-.833-2.794-2.118-2.624s-2.152 1.745-2.16 3.206c-.008 1.442.82 2.815 2.127 2.633z" class="cls-60" transform="translate(-133.529 -160.194)"/>
                            <path id="패스_1194" d="M135.588 166.664c1.236-.172 2.074-1.686 2.082-3.113.008-1.4-.807-2.7-2.05-2.539s-2.084 1.69-2.092 3.1c-.007 1.4.795 2.726 2.059 2.549z" class="cls-61" transform="translate(-133.529 -160.158)"/>
                        </g>
                    </g>
                </g>
                <g id="그룹_546" transform="translate(0 4.11)">
                    <g id="그룹_545" clip-path="url(#clip-path-4)">
                        <g id="그룹_544" transform="translate(-1.15 0.203)">
                            <path id="패스_1196" d="M119.824 170.173c1.677-.233 2.8-2.243 2.805-4.13 0-2.183-1.346-3.546-2.789-3.355-1.677.224-2.817 2.225-2.82 4.119 0 1.915 1.145 3.6 2.8 3.366z" class="cls-11" transform="translate(-117.02 -162.67)"/>
                            <path id="패스_1197" d="M119.756 169.991c1.618-.225 2.7-2.165 2.708-3.986 0-2.106-1.3-3.423-2.693-3.237-1.618.216-2.718 2.147-2.721 3.974 0 1.849 1.1 3.472 2.706 3.248z" class="cls-53" transform="translate(-117.001 -162.62)"/>
                            <path id="패스_1198" d="M119.689 169.811c1.56-.217 2.606-2.087 2.609-3.843.006-2.03-1.252-3.3-2.594-3.12-1.56.208-2.62 2.069-2.624 3.832 0 1.782 1.065 3.347 2.609 3.131z" class="cls-54" transform="translate(-116.983 -162.569)"/>
                            <path id="패스_1199" d="M119.622 169.632c1.5-.209 2.508-2.009 2.512-3.7 0-1.956-1.2-3.177-2.5-3-1.5.2-2.523 1.993-2.526 3.689 0 1.716 1.025 3.222 2.512 3.014z" class="cls-55" transform="translate(-116.964 -162.52)"/>
                            <path id="패스_1200" d="M119.552 169.451c1.445-.2 2.411-1.931 2.416-3.556 0-1.878-1.159-3.052-2.4-2.886-1.443.191-2.424 1.913-2.426 3.545 0 1.649.984 3.1 2.411 2.9z" class="cls-56" transform="translate(-116.945 -162.469)"/>
                            <path id="패스_1201" d="M119.485 169.272c1.386-.195 2.314-1.853 2.319-3.413 0-1.8-1.112-2.928-2.3-2.77-1.385.185-2.327 1.837-2.329 3.4 0 1.583.944 2.971 2.314 2.781z" class="cls-57" transform="translate(-116.926 -162.419)"/>
                            <path id="패스_1202" d="M119.418 169.09c1.328-.185 2.217-1.774 2.22-3.267 0-1.727-1.064-2.807-2.207-2.654-1.326.177-2.228 1.761-2.23 3.259 0 1.516.9 2.846 2.217 2.663z" class="cls-58" transform="translate(-116.907 -162.369)"/>
                            <path id="패스_1203" d="M119.35 168.91c1.27-.177 2.119-1.7 2.123-3.125 0-1.651-1.018-2.682-2.11-2.536-1.268.169-2.131 1.682-2.132 3.115s.864 2.721 2.119 2.546z" class="cls-59" transform="translate(-116.889 -162.318)"/>
                            <path id="패스_1204" d="M119.283 168.73c1.211-.169 2.022-1.618 2.025-2.982 0-1.574-.971-2.559-2.014-2.419-1.21.161-2.032 1.605-2.033 2.972s.825 2.6 2.022 2.429z" class="cls-60" transform="translate(-116.87 -162.269)"/>
                            <path id="패스_1205" d="M119.216 168.55c1.153-.161 1.925-1.542 1.928-2.838 0-1.5-.926-2.436-1.917-2.3-1.151.154-1.934 1.527-1.936 2.83s.785 2.471 1.925 2.312z" class="cls-61" transform="translate(-116.852 -162.218)"/>
                        </g>
                    </g>
                </g>
                <path id="패스_1207" d="M123.339 169.1l15.077-2.119a.975.975 0 0 0 .668-.992c0-.444-.253-.881-.66-.824l-15.08 2.1c-.412.057-.683.568-.684 1.023s.276.872.679.816z" class="cls-63" transform="translate(-114.664 -156.813)"/>
                <path id="패스_1208" d="M123.346 166.488l15.085-2.069c.4-.055.668-.556.67-1.007s-.263-.882-.66-.829l-15.088 2.046c-.41.055-.683.559-.684 1.022s.263.893.678.837z" class="cls-63" transform="translate(-114.659 -158.414)"/>
                <path id="패스_1209" d="M123.354 163.853l15.093-2.017c.4-.054.666-.553.67-1.007 0-.525-.324-.858-.66-.814l-15.1 1.994a.98.98 0 0 0-.686 1c0 .456.266.9.679.84z" class="cls-63" transform="translate(-114.655 -160.011)"/>
                <g id="그룹_549" transform="translate(7.996 8.343)">
                    <g id="그룹_548" clip-path="url(#clip-path-5)">
                        <g id="그룹_547" transform="translate(-2.938 -0.203)">
                            <path id="패스_1210" d="M122.589 169.1l15.077-2.119a.975.975 0 0 0 .668-.992c0-.444-.253-.881-.66-.824l-15.08 2.1c-.412.057-.683.568-.684 1.023s.276.872.679.816z" class="cls-65" transform="translate(-120.188 -164.953)"/>
                            <path id="패스_1211" d="M122.471 169.082l15.077-2.119a.975.975 0 0 0 .668-.992c0-.444-.253-.88-.66-.824l-15.08 2.1c-.412.058-.683.568-.684 1.023s.276.872.679.816z" class="cls-66" transform="translate(-120.261 -164.962)"/>
                            <path id="패스_1212" d="M122.353 169.068l15.077-2.119a.975.975 0 0 0 .668-.992c0-.444-.253-.881-.66-.824l-15.08 2.1c-.412.058-.683.568-.684 1.023s.274.872.679.816z" class="cls-67" transform="translate(-120.335 -164.971)"/>
                            <path id="패스_1213" d="M122.235 169.054l15.077-2.119c.394-.055.665-.545.668-.992s-.253-.88-.66-.824l-15.08 2.1c-.412.058-.683.569-.684 1.023s.274.872.679.816z" class="cls-68" transform="translate(-120.408 -164.979)"/>
                            <path id="패스_1214" d="M122.117 169.04l15.077-2.119c.394-.055.665-.545.668-.992s-.255-.88-.66-.824l-15.08 2.1c-.413.058-.683.569-.684 1.023s.274.872.679.816z" class="cls-69" transform="translate(-120.481 -164.988)"/>
                            <path id="패스_1215" d="M122 169.026l15.077-2.119c.394-.055.665-.543.668-.992s-.255-.88-.66-.824l-15.08 2.1c-.413.057-.683.568-.684 1.023s.274.871.679.814z" class="cls-35" transform="translate(-120.555 -164.997)"/>
                            <path id="패스_1216" d="M121.881 169.014l15.077-2.121c.394-.055.665-.543.668-.992s-.255-.879-.66-.824l-15.08 2.1c-.413.057-.683.568-.684 1.023s.274.872.679.816z" class="cls-70" transform="translate(-120.628 -165.005)"/>
                            <path id="패스_1217" d="M121.762 169l15.077-2.119a.977.977 0 0 0 .67-.992c0-.446-.255-.881-.66-.825l-15.08 2.1c-.413.057-.683.568-.684 1.023s.274.872.678.816z" class="cls-71" transform="translate(-120.701 -165.014)"/>
                            <path id="패스_1218" d="M121.644 168.985l15.077-2.119a.977.977 0 0 0 .67-.992c0-.444-.255-.88-.66-.824l-15.08 2.1c-.413.057-.683.568-.684 1.023s.274.872.678.816z" class="cls-40" transform="translate(-120.775 -165.022)"/>
                            <path id="패스_1219" d="M121.526 168.971l15.077-2.119c.4-.055.666-.545.67-.992s-.255-.881-.66-.824l-15.08 2.1c-.413.057-.683.568-.684 1.023s.274.872.678.816z" class="cls-72" transform="translate(-120.848 -165.031)"/>
                        </g>
                    </g>
                </g>
                <g id="그룹_552" transform="translate(8.009 4.165)">
                    <g id="그룹_551" clip-path="url(#clip-path-6)">
                        <g id="그룹_550" transform="translate(-1.216 0)">
                            <path id="패스_1221" d="M122.6 166.488l15.085-2.069c.4-.055.668-.556.67-1.007s-.263-.882-.66-.829L122.6 164.63c-.41.055-.683.559-.684 1.022s.263.893.678.837z" class="cls-65" transform="translate(-121.918 -162.579)"/>
                            <path id="패스_1222" d="M122.588 166.436l14.886-2.041c.4-.053.657-.548.66-.994s-.259-.871-.652-.817l-14.889 2.016c-.4.055-.673.553-.675 1.009s.259.882.67.825z" class="cls-66" transform="translate(-121.918 -162.579)"/>
                            <path id="패스_1223" d="M122.578 166.385l14.686-2.014c.391-.054.649-.542.65-.981s-.255-.859-.642-.806l-14.688 1.991c-.4.054-.666.545-.666 1s.256.869.66.814z" class="cls-67" transform="translate(-121.918 -162.579)"/>
                            <path id="패스_1224" d="M122.57 166.333l14.485-1.986c.386-.054.64-.534.642-.968s-.251-.846-.634-.795l-14.488 1.964c-.392.054-.657.538-.657.983s.253.858.652.8z" class="cls-68" transform="translate(-121.918 -162.579)"/>
                            <path id="패스_1225" d="M122.56 166.281l14.286-1.959c.381-.052.632-.527.634-.955s-.248-.835-.624-.783l-14.289 1.938c-.389.052-.649.53-.649.968s.25.845.642.791z" class="cls-69" transform="translate(-121.918 -162.579)"/>
                            <path id="패스_1226" d="M122.552 166.229l14.086-1.931c.375-.052.621-.519.624-.94s-.245-.824-.616-.773l-14.089 1.91c-.383.052-.639.522-.639.955s.246.833.634.78z" class="cls-35" transform="translate(-121.918 -162.579)"/>
                            <path id="패스_1227" d="M122.542 166.177l13.887-1.9c.37-.05.613-.512.615-.927s-.24-.812-.606-.762l-13.89 1.883c-.376.052-.629.516-.629.942s.242.822.624.769z" class="cls-70" transform="translate(-121.918 -162.579)"/>
                            <path id="패스_1228" d="M122.534 166.125l13.686-1.876c.365-.05.6-.5.606-.915s-.237-.8-.6-.751l-13.689 1.855c-.371.05-.621.509-.621.929s.238.809.616.757z" class="cls-71" transform="translate(-121.918 -162.579)"/>
                            <path id="패스_1229" d="M122.524 166.073l13.486-1.849c.36-.05.6-.5.6-.9s-.234-.788-.59-.739l-13.489 1.829c-.366.049-.611.5-.611.915s.235.8.606.746z" class="cls-40" transform="translate(-121.918 -162.579)"/>
                            <path id="패스_1230" d="M122.516 166.021L135.8 164.2c.355-.049.589-.49.59-.889s-.232-.777-.582-.728l-13.288 1.8c-.362.049-.6.493-.6.9s.232.786.6.736z" class="cls-72" transform="translate(-121.918 -162.579)"/>
                        </g>
                    </g>
                </g>
                <g id="그룹_555" transform="translate(8.02)">
                    <g id="그룹_554" clip-path="url(#clip-path-7)">
                        <g id="그룹_553" transform="translate(-1.216)">
                            <path id="패스_1232" d="M122.6 163.853l15.093-2.017c.4-.054.666-.553.67-1.007 0-.525-.324-.858-.66-.814l-15.1 1.994a.98.98 0 0 0-.686 1c0 .456.266.9.679.84z" class="cls-65" transform="translate(-121.925 -160.011)"/>
                            <path id="패스_1233" d="M122.635 163.793l14.829-1.982c.394-.053.655-.545.657-.991 0-.517-.318-.843-.649-.8l-14.832 1.96a.959.959 0 0 0-.673.986c0 .448.261.879.668.825z" class="cls-66" transform="translate(-121.899 -160.006)"/>
                            <path id="패스_1234" d="M122.665 163.732l14.564-1.946c.388-.052.644-.535.645-.973 0-.508-.311-.829-.636-.785l-14.569 1.925a.944.944 0 0 0-.662.968c0 .439.258.864.657.811z" class="cls-67" transform="translate(-121.873 -160.002)"/>
                            <path id="패스_1235" d="M122.694 163.673l14.3-1.912c.381-.052.631-.525.634-.955 0-.5-.306-.812-.626-.77l-14.302 1.889a.929.929 0 0 0-.649.952c0 .431.253.848.644.8z" class="cls-68" transform="translate(-121.847 -159.998)"/>
                            <path id="패스_1236" d="M122.724 163.611l14.036-1.876c.375-.05.621-.514.623-.937 0-.49-.3-.8-.615-.756l-14.039 1.858a.909.909 0 0 0-.637.932c0 .423.246.833.632.782z" class="cls-69" transform="translate(-121.821 -159.993)"/>
                            <path id="패스_1237" d="M122.754 163.551l13.773-1.84c.366-.049.608-.5.61-.919 0-.48-.3-.783-.6-.743l-13.776 1.821a.894.894 0 0 0-.626.916c0 .415.243.816.621.765z" class="cls-35" transform="translate(-121.796 -159.989)"/>
                            <path id="패스_1238" d="M122.783 163.491l13.509-1.806c.36-.047.6-.495.6-.9 0-.47-.29-.767-.592-.728l-13.512 1.785a.876.876 0 0 0-.613.9c0 .407.238.8.608.752z" class="cls-70" transform="translate(-121.77 -159.985)"/>
                            <path id="패스_1239" d="M122.814 163.43l13.245-1.769c.352-.049.585-.486.587-.885 0-.461-.284-.752-.579-.713l-13.249 1.751a.857.857 0 0 0-.6.88c0 .4.233.785.6.736z" class="cls-71" transform="translate(-121.744 -159.981)"/>
                            <path id="패스_1240" d="M122.843 163.371l12.98-1.735c.347-.047.574-.477.576-.868 0-.452-.277-.738-.568-.7l-12.983 1.716a.84.84 0 0 0-.59.863c0 .392.23.77.585.723z" class="cls-40" transform="translate(-121.718 -159.976)"/>
                            <path id="패스_1241" d="M122.872 163.31l12.718-1.7c.339-.045.563-.467.564-.85 0-.443-.274-.722-.556-.684l-12.721 1.68a.826.826 0 0 0-.577.846c0 .383.224.754.572.707z" class="cls-72" transform="translate(-121.692 -159.972)"/>
                        </g>
                    </g>
                </g>
            </g>
            <path id="패스_1243" fill="#1189f9" d="M143.587 170.34a6.926 6.926 0 0 1 1.785 1.545 10.153 10.153 0 0 1 1.395 2.221 12.98 12.98 0 0 1 .9 2.7 13.911 13.911 0 0 1 .321 2.967l-.013 10.326a6.632 6.632 0 0 1-.266 1.891 4.535 4.535 0 0 1-.718 1.451 2.786 2.786 0 0 1-1.064.872 2.154 2.154 0 0 1-1.3.151l-7.386-1.375.01-.378a21.347 21.347 0 0 0-.723-5.507 18.918 18.918 0 0 0-1.97-4.74 12.984 12.984 0 0 0-2.902-3.464 7.71 7.71 0 0 0-3.537-1.686 5.8 5.8 0 0 0-3.506.475 7.645 7.645 0 0 0-2.841 2.429 12.591 12.591 0 0 0-1.9 3.981 18.413 18.413 0 0 0-.686 5.148l.011.375-34.6-6.442.018-.355a21.26 21.26 0 0 0-.681-5.192 18.408 18.408 0 0 0-1.784-4.456 12.043 12.043 0 0 0-2.609-3.238 6.65 6.65 0 0 0-3.155-1.56 4.881 4.881 0 0 0-3.112.482 6.964 6.964 0 0 0-2.512 2.322 12.233 12.233 0 0 0-1.667 3.78 18.413 18.413 0 0 0-.577 4.871l.011.355-3.888-.725a2.2 2.2 0 0 1-1.03-.529 4.006 4.006 0 0 1-.845-1.073 6.164 6.164 0 0 1-.576-1.469 7.234 7.234 0 0 1-.222-1.711l-.118-11.926a14.179 14.179 0 0 1 .148-2.225 11.838 11.838 0 0 1 .475-2.014 8.857 8.857 0 0 1 .772-1.712 6.087 6.087 0 0 1 1.043-1.326l8.142-7.514 5.294-10.332a8.5 8.5 0 0 1 1.119-1.6 6.173 6.173 0 0 1 1.317-1.124 4.782 4.782 0 0 1 1.469-.613 4.433 4.433 0 0 1 1.571-.073l28.764 3.741a3.789 3.789 0 0 1 1.085.318 4.858 4.858 0 0 1 1.031.649 6.484 6.484 0 0 1 .949.95 8.578 8.578 0 0 1 .832 1.226l10.6 19.124zm-26.376-10.24a1.576 1.576 0 0 0 .42 0 1.379 1.379 0 0 0 .739-.328 1.844 1.844 0 0 0 .55-1.114 6.377 6.377 0 0 0-.149-2.356l-4.766-9.828a4.866 4.866 0 0 0-.448-.749 3.546 3.546 0 0 0-.527-.584 2.726 2.726 0 0 0-.585-.4 2.019 2.019 0 0 0-.621-.2l-13.156-1.801.039 7.6.037 6.921 18.467 2.841zm-38.365-5.9l16.426 2.525-.081-14.462-12.591-1.728a1.729 1.729 0 0 0-.7.045 1.97 1.97 0 0 0-.644.323 2.694 2.694 0 0 0-.556.576 3.823 3.823 0 0 0-.439.8l-2.972 7.235a3.893 3.893 0 0 0-.268 1.464 4.763 4.763 0 0 0 .238 1.472 3.447 3.447 0 0 0 .64 1.176 1.614 1.614 0 0 0 .945.571z" transform="translate(0 1.396)"/>
            <g id="그룹_569" transform="translate(123.448 142.631)">
                <g id="그룹_558" class="cls-76" transform="translate(0)">
                    <g id="그룹_557">
                        <path id="패스_1244" fill="#5772ca" d="M128.906 138.578l-28.349 2.87a.755.755 0 0 0-.483.217.856.856 0 0 0-.222.48 1.747 1.747 0 0 0 .044.673 3.225 3.225 0 0 0 .319.791l6.506 11.68a4.4 4.4 0 0 0 .553.773 4.254 4.254 0 0 0 .671.608 2.966 2.966 0 0 0 .707.381 1.5 1.5 0 0 0 .662.092l28.362-3.248a.718.718 0 0 0 .457-.217.838.838 0 0 0 .2-.474 1.783 1.783 0 0 0-.062-.66 3.269 3.269 0 0 0-.329-.778l-6.518-11.37a4.425 4.425 0 0 0-.543-.748 4.285 4.285 0 0 0-.655-.593 2.923 2.923 0 0 0-.686-.378 1.447 1.447 0 0 0-.634-.1z" transform="translate(-99.836 -138.573)"/>
                    </g>
                </g>
                <g id="그룹_559" class="cls-76" transform="translate(0.383 0.185)">
                    <path id="패스_1245" fill="#5470c9" d="M128.563 138.692l-27.784 2.808a.746.746 0 0 0-.472.214.828.828 0 0 0-.219.47 1.708 1.708 0 0 0 .042.66 3.141 3.141 0 0 0 .315.775l6.376 11.448a4.283 4.283 0 0 0 .542.757 4.03 4.03 0 0 0 .658.6 2.9 2.9 0 0 0 .692.373 1.459 1.459 0 0 0 .647.091l27.8-3.183a.7.7 0 0 0 .448-.214.816.816 0 0 0 .2-.464 1.746 1.746 0 0 0-.06-.647 3.212 3.212 0 0 0-.324-.762l-6.387-11.143a4.261 4.261 0 0 0-.533-.733 4.122 4.122 0 0 0-.642-.582 2.857 2.857 0 0 0-.671-.37 1.389 1.389 0 0 0-.623-.1z" transform="translate(-100.072 -138.687)"/>
                </g>
                <g id="그룹_560" class="cls-76" transform="translate(0.766 0.37)">
                    <path id="패스_1246" fill="#526fc9" d="M128.222 138.806L101 141.561a.724.724 0 0 0-.464.209.82.82 0 0 0-.214.461 1.674 1.674 0 0 0 .042.647 3.037 3.037 0 0 0 .306.76l6.248 11.214a4.194 4.194 0 0 0 .53.743 4.081 4.081 0 0 0 .645.584 2.806 2.806 0 0 0 .678.365 1.448 1.448 0 0 0 .634.091l27.235-3.12a.688.688 0 0 0 .439-.209.8.8 0 0 0 .193-.454 1.707 1.707 0 0 0-.058-.634 3.224 3.224 0 0 0-.318-.747l-6.257-10.918a4.312 4.312 0 0 0-.524-.718 4.108 4.108 0 0 0-.629-.569 2.8 2.8 0 0 0-.657-.363 1.376 1.376 0 0 0-.61-.1z" transform="translate(-100.309 -138.801)"/>
                </g>
                <g id="그룹_561" class="cls-76" transform="translate(1.149 0.554)">
                    <path id="패스_1247" fill="#506dc8" d="M127.881 138.92l-26.658 2.7a.719.719 0 0 0-.454.2.807.807 0 0 0-.209.452 1.63 1.63 0 0 0 .041.632 3.04 3.04 0 0 0 .3.744l6.116 10.983a4.164 4.164 0 0 0 .521.726 3.912 3.912 0 0 0 .631.572 2.723 2.723 0 0 0 .665.357 1.414 1.414 0 0 0 .621.089l26.671-3.055a.67.67 0 0 0 .43-.2.785.785 0 0 0 .19-.446 1.674 1.674 0 0 0-.058-.621 3.079 3.079 0 0 0-.31-.731l-6.129-10.691a4.149 4.149 0 0 0-.511-.7 4.018 4.018 0 0 0-.616-.558 2.723 2.723 0 0 0-.645-.355 1.335 1.335 0 0 0-.6-.094z" transform="translate(-100.545 -138.915)"/>
                </g>
                <g id="그룹_562" class="cls-76" transform="translate(1.531 0.739)">
                    <path id="패스_1248" fill="#4e6cc8" d="M127.538 139.034l-26.093 2.64a.7.7 0 0 0-.444.2.783.783 0 0 0-.2.443 1.555 1.555 0 0 0 .041.618 2.948 2.948 0 0 0 .293.73l5.988 10.749a4.009 4.009 0 0 0 .509.713 3.9 3.9 0 0 0 .618.559 2.693 2.693 0 0 0 .65.35 1.4 1.4 0 0 0 .608.086l26.106-2.99a.658.658 0 0 0 .422-.2.773.773 0 0 0 .185-.435 1.632 1.632 0 0 0-.057-.608 3.06 3.06 0 0 0-.3-.717l-6-10.464a3.983 3.983 0 0 0-.5-.689 3.863 3.863 0 0 0-.6-.546 2.694 2.694 0 0 0-.631-.349 1.3 1.3 0 0 0-.584-.091z" transform="translate(-100.781 -139.029)"/>
                </g>
                <g id="그룹_563" class="cls-76" transform="translate(1.915 0.923)">
                    <path id="패스_1249" fill="#4b6bc7" d="M127.2 139.147l-25.531 2.585a.68.68 0 0 0-.433.2.761.761 0 0 0-.2.433 1.578 1.578 0 0 0 .039.6 2.928 2.928 0 0 0 .289.714l5.859 10.517a3.887 3.887 0 0 0 .5.7 3.8 3.8 0 0 0 .6.548 2.626 2.626 0 0 0 .636.342 1.339 1.339 0 0 0 .6.084l25.542-2.925a.648.648 0 0 0 .412-.2.761.761 0 0 0 .182-.426 1.6 1.6 0 0 0-.055-.6 2.935 2.935 0 0 0-.3-.7l-5.868-10.238a3.957 3.957 0 0 0-.491-.673 3.765 3.765 0 0 0-.589-.535 2.609 2.609 0 0 0-.618-.341 1.3 1.3 0 0 0-.571-.091z" transform="translate(-101.017 -139.142)"/>
                </g>
                <g id="그룹_564" class="cls-76" transform="translate(2.298 1.108)">
                    <path id="패스_1250" fill="#4869c7" d="M126.853 139.261l-24.965 2.528a.666.666 0 0 0-.425.191.748.748 0 0 0-.2.423 1.513 1.513 0 0 0 .039.592 2.788 2.788 0 0 0 .281.7l5.73 10.285a3.777 3.777 0 0 0 1.077 1.216 2.5 2.5 0 0 0 .623.336 1.3 1.3 0 0 0 .582.083l24.978-2.86a.626.626 0 0 0 .4-.191.738.738 0 0 0 .178-.417 1.561 1.561 0 0 0-.055-.582 2.866 2.866 0 0 0-.29-.686l-5.74-10.011a3.847 3.847 0 0 0-.478-.66 3.76 3.76 0 0 0-.577-.522 2.544 2.544 0 0 0-.6-.332 1.286 1.286 0 0 0-.559-.089z" transform="translate(-101.253 -139.256)"/>
                </g>
                <g id="그룹_565" class="cls-76" transform="translate(2.68 1.293)">
                    <path id="패스_1251" fill="#4768c6" d="M126.512 139.375l-24.4 2.47a.657.657 0 0 0-.415.188.735.735 0 0 0-.191.413 1.477 1.477 0 0 0 .037.579 2.707 2.707 0 0 0 .276.681l5.6 10.053a3.768 3.768 0 0 0 .477.666 3.533 3.533 0 0 0 .577.522 2.467 2.467 0 0 0 .608.329 1.288 1.288 0 0 0 .569.079l24.414-2.8a.622.622 0 0 0 .394-.188.725.725 0 0 0 .174-.407 1.517 1.517 0 0 0-.054-.568 2.849 2.849 0 0 0-.284-.671l-5.61-9.786a3.822 3.822 0 0 0-.469-.644 3.6 3.6 0 0 0-.564-.511 2.547 2.547 0 0 0-.589-.326 1.253 1.253 0 0 0-.546-.086z" transform="translate(-101.489 -139.37)"/>
                </g>
                <g id="그룹_566" class="cls-76" transform="translate(3.064 1.478)">
                    <path id="패스_1252" fill="#4467c6" d="M126.171 139.489l-23.84 2.413a.643.643 0 0 0-.405.183.711.711 0 0 0-.186.4 1.47 1.47 0 0 0 .036.566 2.739 2.739 0 0 0 .269.665l5.471 9.822a3.588 3.588 0 0 0 .465.65 3.38 3.38 0 0 0 .564.511 2.382 2.382 0 0 0 .6.321 1.244 1.244 0 0 0 .555.078l23.851-2.731a.6.6 0 0 0 .383-.183.713.713 0 0 0 .17-.4 1.514 1.514 0 0 0-.052-.555 2.813 2.813 0 0 0-.277-.653l-5.481-9.56a3.67 3.67 0 0 0-.457-.629 3.588 3.588 0 0 0-.551-.5 2.408 2.408 0 0 0-.577-.318 1.208 1.208 0 0 0-.532-.084z" transform="translate(-101.726 -139.484)"/>
                </g>
                <g id="그룹_568" class="cls-76" transform="translate(3.446 1.663)">
                    <g id="그룹_567">
                        <path id="패스_1253" fill="#4165c5" d="M125.828 139.6l-23.274 2.356a.618.618 0 0 0-.4.178.711.711 0 0 0-.185.394 1.438 1.438 0 0 0 .037.553 2.6 2.6 0 0 0 .263.65l5.341 9.588a3.48 3.48 0 0 0 .454.636 3.416 3.416 0 0 0 .55.5 2.409 2.409 0 0 0 .582.313 1.232 1.232 0 0 0 .542.078l23.287-2.667a.585.585 0 0 0 .375-.179.694.694 0 0 0 .164-.389 1.468 1.468 0 0 0-.049-.542 2.667 2.667 0 0 0-.272-.639l-5.343-9.33a3.657 3.657 0 0 0-.448-.615 3.579 3.579 0 0 0-.538-.486 2.343 2.343 0 0 0-.563-.31 1.177 1.177 0 0 0-.521-.083z" transform="translate(-101.961 -139.598)"/>
                    </g>
                </g>
            </g>
            <g id="그룹_571" transform="translate(123.448 142.631)">
                <g id="그룹_570" clip-path="url(#clip-path-8)" transform="translate(0)">
                    <path id="사각형_874" d="M0 0H2.768V25.809H0z" class="cls-88" transform="matrix(0.845, 0.534, -0.534, 0.845, 8.709, -5.714)"/>
                    <path id="사각형_875" d="M0 0H6.821V31.597H0z" class="cls-88" transform="matrix(0.845, 0.534, -0.534, 0.845, 15.289, -8.924)"/>
                    <path id="사각형_876" d="M0 0H7.776V25.809H0z" class="cls-88" transform="matrix(0.845, 0.534, -0.534, 0.845, 32.6, -1.329)"/>
                </g>
            </g>
        </g>
    </g>
</svg>
