<svg xmlns="http://www.w3.org/2000/svg" width="212" height="161" viewBox="0 0 212 161">
    <defs>
        <style>
            .cls-3{fill:#93969f}
        </style>
    </defs>
    <g id="icon" transform="translate(-937 -105)">
        <g id="icon-2" opacity="0.5" transform="translate(942.773 105)">
            <g id="그룹_6" opacity="0.3" transform="translate(-0.773)">
                <g id="그룹_1" transform="translate(182.829 99.512)">
                    <path id="패스_1" d="M535.205 75.771L523.448 64a80.094 80.094 0 0 1-8.813 25.892l3.213 3.221a12.268 12.268 0 0 0 17.357-17.342z" class="cls-3" transform="translate(-514.635 -64)"/>
                </g>
                <g id="그룹_3" transform="translate(9.846)">
                    <g id="그룹_2">
                        <path id="패스_2" d="M523.179 82.413a1.693 1.693 0 0 0 1.208-.49 1.723 1.723 0 0 0 0-2.408l-21.023-21.076a33.241 33.241 0 0 0-2.416 2.46l21.038 21.031a1.66 1.66 0 0 0 1.193.483z" class="cls-3" transform="translate(-433.289 -3.428)"/>
                        <path id="패스_3" d="M493.985 56.49a1.706 1.706 0 0 0 0 3.411h19.962c.615-1.157 1.252-2.291 1.933-3.411z" class="cls-3" transform="translate(-492.287 -17.294)"/>
                        <path id="패스_4" d="M539.4 70.757l-13.55-13.586a1.66 1.66 0 0 0-1.3-.681h-27.371c-.681 1.12-1.318 2.255-1.933 3.411h28.424l13.315 13.315a33.306 33.306 0 0 1 2.415-2.459z" class="cls-3" transform="translate(-473.585 -17.044)"/>
                        <path id="패스_5" d="M574.176 51.48a79.445 79.445 0 0 0-48.708 16.6h9.043a24.026 24.026 0 0 1 18.437 8.62l19.743 19.835c.49-.016.98-.039 1.485-.039a35.487 35.487 0 1 1-35.325 35.483c0-.172.008-.352.008-.531L524.286 116.8h-28.8a81.386 81.386 0 0 0-1.438 15.179c0 44.459 35.871 80.5 80.13 80.5s80.116-36.045 80.116-80.5c-.002-44.462-35.873-80.499-80.118-80.499z" class="cls-3" transform="translate(-481.17 -51.48)"/>
                    </g>
                </g>
                <g id="그룹_4" transform="translate(0 29.005)">
                    <path id="패스_6" fill="#93969f" fill-rule="evenodd" d="M595.826 93.485l-33.812-33.8a12.172 12.172 0 0 0-9.524-4.634h-49.273a12.269 12.269 0 1 0 0 24.537h44.016l31.243 31.243a12.265 12.265 0 1 0 17.349-17.342z" transform="translate(-490.942 -55.047)"/>
                </g>
                <g id="그룹_5" transform="translate(102.844 103.308)"/>
            </g>
        </g>
        <path id="ic_directions_car_24px" fill="#6d6e71" d="M58.72 8.535A5.23 5.23 0 0 0 53.75 5h-38.5a5.263 5.263 0 0 0-4.97 3.535L3 29.5v28A3.51 3.51 0 0 0 6.5 61H10a3.51 3.51 0 0 0 3.5-3.5V54h42v3.5A3.51 3.51 0 0 0 59 61h3.5a3.51 3.51 0 0 0 3.5-3.5v-28zM15.25 43.5a5.25 5.25 0 1 1 5.25-5.25 5.243 5.243 0 0 1-5.25 5.25zm38.5 0A5.25 5.25 0 1 1 59 38.25a5.243 5.243 0 0 1-5.25 5.25zM10 26l5.25-15.75h38.5L59 26z" transform="translate(934 204)"/>
    </g>
</svg>
