<svg xmlns="http://www.w3.org/2000/svg" width="25" height="25" viewBox="0 0 25 25">
    <defs>
        <style>
            .cls-1{fill:#d1d3d4}
        </style>
    </defs>
    <g id="ic_directions_car_18px" transform="translate(-275 -752)">
        <path id="ic_directions_car_18px-2" d="M18.92 6.01A1.494 1.494 0 0 0 17.5 5h-11a1.5 1.5 0 0 0-1.42 1.01L3 12v8a1 1 0 0 0 1 1h1a1 1 0 0 0 1-1v-1h12v1a1 1 0 0 0 1 1h1a1 1 0 0 0 1-1v-8zM6.5 16A1.5 1.5 0 1 1 8 14.5 1.5 1.5 0 0 1 6.5 16zm11 0a1.5 1.5 0 1 1 1.5-1.5 1.5 1.5 0 0 1-1.5 1.5zM5 11l1.5-4.5h11L19 11z" class="cls-1" transform="translate(272 756)"/>
        <path id="패스_427" d="M91.661 322.822l-.953-1.236 2.722-1.987-3.981-1.107.99-6.423-5.688 3.731-2.643-2.817-.61 2.907-1.556-.31 1.236-5.882L85 313.776l7.547-4.954-1.319 8.556 5.714 1.589z" class="cls-1" transform="translate(203.059 443.178)"/>
    </g>
</svg>
