<svg xmlns="http://www.w3.org/2000/svg" width="20" height="20" viewBox="0 0 20 20">
    <path fill="#6d6e71" d="M17.151 5.884A1.327 1.327 0 0 0 15.889 5H6.111a1.335 1.335 0 0 0-1.262.884L3 11.125v7a.885.885 0 0 0 .889.875h.889a.885.885 0 0 0 .889-.875v-.875h10.666v.875a.885.885 0 0 0 .889.875h.889a.885.885 0 0 0 .889-.875v-7zm-11.04 8.741a1.313 1.313 0 1 1 1.333-1.312 1.321 1.321 0 0 1-1.333 1.312zm9.778 0a1.313 1.313 0 1 1 1.333-1.312 1.321 1.321 0 0 1-1.333 1.312zM4.778 10.25l1.333-3.937h9.778l1.333 3.937z" transform="translate(-1 -2)"/>
</svg>
