<svg xmlns="http://www.w3.org/2000/svg" width="28" height="26" viewBox="0 0 28 26">
    <defs>
        <style>
            .cls-1{fill:#3ba0ff}.cls-2{fill:#303236}
        </style>
    </defs>
    <g id="icon_sell" transform="translate(-1177.572 217.408)">
        <g id="그룹_118" transform="translate(1177.572 -217.408)">
            <g id="그룹_113" transform="translate(8.096 21.616)">
                <g id="그룹_112" transform="translate(0 0)">
                    <path id="패스_391" d="M1242.143-74.6h-13.873a4.261 4.261 0 0 1-1.817 2.816 2.44 2.44 0 0 1-.963.27h17c2.05 0 1.564-3.091 1.564-3.091z" class="cls-1" transform="translate(-1224.845 75.249)"/>
                    <path id="패스_392" d="M1239.132-74.219h-17a.646.646 0 0 1-.646-.629.647.647 0 0 1 .611-.663 1.809 1.809 0 0 0 .708-.2 3.739 3.739 0 0 0 1.481-2.4.646.646 0 0 1 .625-.482h15.78a.646.646 0 0 1 .638.546 4.391 4.391 0 0 1-.611 3.14 2.022 2.022 0 0 1-1.586.688zm-14.622-1.3h14.623a.725.725 0 0 0 .608-.245 2.522 2.522 0 0 0 .36-1.553h-1.273a.6.6 0 0 1-.076 0H1225.4a5.889 5.889 0 0 1-.89 1.801z" class="cls-2" transform="translate(-1221.49 78.603)"/>
                </g>
            </g>
            <g id="그룹_115" transform="translate(2.354 0)">
                <g id="그룹_114">
                    <path id="패스_393" fill="#fff" d="M1204.014-191.694h14.521a48.418 48.418 0 0 1-1.163-9.614c-.17-4.033.7-8.066-1.641-12.1h-19.59c.115.211.22.426.322.641.036.077.067.155.1.232.06.138.121.278.175.418q.057.147.11.3c.043.119.085.238.124.357s.073.227.108.342c.03.1.057.2.084.3.036.133.073.267.106.4l.034.15a37.52 37.52 0 0 1 .454 8.966c.042 1 .021 2.016.007 3.02a25.332 25.332 0 0 0 .269 5.306 12.37 12.37 0 0 0 .742 2.612 2.483 2.483 0 0 0 2.145 1.664h.182a2.715 2.715 0 0 0 1.008-.262 4.116 4.116 0 0 0 1.903-2.732z" transform="translate(-1195.495 214.054)"/>
                    <path id="패스_394" d="M1197.767-191.413h-.2a3.132 3.132 0 0 1-2.741-2.055 13.055 13.055 0 0 1-.779-2.742 24.1 24.1 0 0 1-.285-5.047l.01-.712c.013-.879.026-1.788-.011-2.668v-.033q.009-.574.022-1.158a31.622 31.622 0 0 0-.46-7.682l-.034-.149c-.026-.105-.056-.217-.087-.329l-.024-.088-.07-.247q-.049-.164-.1-.327c-.038-.115-.076-.227-.117-.34s-.069-.192-.106-.285c-.052-.133-.108-.264-.165-.4l-.039-.091c-.019-.043-.037-.087-.057-.13-.111-.238-.208-.431-.3-.606a.588.588 0 0 1 .028-.611.687.687 0 0 1 .575-.3h19.54a.683.683 0 0 1 .594.331c1.846 3.2 1.78 6.382 1.716 9.463-.02.963-.041 1.958 0 2.928v.033a48.185 48.185 0 0 0 1.138 9.45.579.579 0 0 1 .025.17.652.652 0 0 1-.675.627h-13.981a4.283 4.283 0 0 1-2.1 2.664 3.42 3.42 0 0 1-1.272.328zm-.169-1.253h.149a2.012 2.012 0 0 0 .723-.2 3.6 3.6 0 0 0 1.546-2.33.668.668 0 0 1 .652-.467h13.682a45.87 45.87 0 0 1-1.032-8.995c-.042-1-.021-2.009 0-2.984.061-2.938.118-5.72-1.373-8.516h-18.087l.005.012c.064.147.127.294.185.442.04.1.078.206.115.31.045.123.088.248.129.375s.076.235.112.356c.027.091.052.181.077.272l.026.093c.033.121.065.241.095.363l.036.158a32.463 32.463 0 0 1 .489 7.97q-.012.572-.021 1.135c.038.908.024 1.827.011 2.717l-.01.713a22.879 22.879 0 0 0 .263 4.8 12.031 12.031 0 0 0 .7 2.49 1.906 1.906 0 0 0 1.53 1.286z" class="cls-2" transform="translate(-1192.141 217.408)"/>
                </g>
            </g>
            <g id="그룹_117" transform="translate(0 0)">
                <g id="그룹_116">
                    <path id="패스_395" d="M1184.9-210.739c-.026-.1-.052-.206-.081-.308-.033-.119-.068-.236-.1-.353s-.076-.246-.118-.369q-.051-.153-.105-.305c-.052-.145-.11-.289-.167-.432-.032-.08-.063-.16-.1-.239-.1-.223-.2-.444-.307-.662 0 0-2.912.507-2.26 5.073h3.671c-.071-.62-.169-1.233-.3-1.836l-.032-.154c-.03-.14-.064-.276-.101-.415z" class="cls-1" transform="translate(-1180.922 214.054)"/>
                    <path id="패스_396" d="M1181.983-211.042h-3.67a.647.647 0 0 1-.64-.555c-.733-5.128 2.753-5.8 2.788-5.8a.647.647 0 0 1 .688.345c.1.2.206.425.324.7.025.058.047.114.069.17l.033.083c.061.151.122.3.177.456.038.106.074.213.11.32.043.127.084.256.124.387s.073.243.107.367c.024.083.046.17.068.258l.03.119c.031.125.063.249.091.374l.023.109.011.054c.131.61.234 1.248.309 1.9a.647.647 0 0 1-.16.5.647.647 0 0 1-.482.213zm-3.093-1.293h2.355c-.055-.36-.119-.713-.192-1.055l-.014-.067-.016-.076c-.027-.118-.056-.233-.085-.349l-.029-.116c-.019-.076-.039-.151-.06-.226-.033-.117-.065-.229-.1-.341s-.073-.234-.112-.35c-.034-.1-.066-.2-.1-.294-.049-.137-.1-.273-.158-.408l-.038-.094-.054-.134-.045-.1c-.594.327-1.542 1.233-1.352 3.611z" class="cls-2" transform="translate(-1177.572 217.408)"/>
                </g>
            </g>
        </g>
        <g id="그룹_124" transform="translate(1190.527 -202.623)">
            <g id="그룹_119" transform="translate(0.345 0)">
                <path id="패스_397" d="M1258.02-116.74a.646.646 0 0 1-.612-.438l-1.447-4.241a.646.646 0 0 1 .4-.82.646.646 0 0 1 .82.4l1.447 4.241a.646.646 0 0 1-.4.82.644.644 0 0 1-.208.038z" class="cls-2" transform="translate(-1255.927 122.274)"/>
            </g>
            <g id="그룹_120" transform="translate(1.791 0)">
                <path id="패스_398" d="M1265.527-116.741a.644.644 0 0 1-.208-.035.646.646 0 0 1-.4-.82l1.446-4.241a.646.646 0 0 1 .82-.4.646.646 0 0 1 .4.82l-1.446 4.241a.647.647 0 0 1-.612.435z" class="cls-2" transform="translate(-1264.881 122.275)"/>
            </g>
            <g id="그룹_121" transform="translate(3.238 0)">
                <path id="패스_399" d="M1275.925-116.74a.646.646 0 0 1-.612-.438l-1.447-4.241a.647.647 0 0 1 .4-.82.646.646 0 0 1 .82.4l1.447 4.241a.646.646 0 0 1-.4.82.643.643 0 0 1-.208.038z" class="cls-2" transform="translate(-1273.832 122.274)"/>
            </g>
            <g id="그룹_122" transform="translate(4.684 0)">
                <path id="패스_400" d="M1283.432-116.741a.644.644 0 0 1-.208-.035.646.646 0 0 1-.4-.82l1.446-4.241a.646.646 0 0 1 .82-.4.646.646 0 0 1 .4.82l-1.446 4.241a.647.647 0 0 1-.612.435z" class="cls-2" transform="translate(-1282.786 122.275)"/>
            </g>
            <g id="그룹_123" transform="translate(0 1.558)">
                <path id="패스_401" d="M1260.916-111.339h-6.476a.646.646 0 0 1-.646-.646.646.646 0 0 1 .646-.646h6.476a.646.646 0 0 1 .646.646.646.646 0 0 1-.646.646z" class="cls-2" transform="translate(-1253.794 112.632)"/>
            </g>
        </g>
        <g id="그룹_125" transform="translate(1185.697 -213.828)">
            <path id="패스_402" d="M1236.007-193.959h-10.628a.646.646 0 0 1-.646-.646.646.646 0 0 1 .646-.646h10.628a.646.646 0 0 1 .646.646.646.646 0 0 1-.646.646z" class="cls-2" transform="translate(-1224.733 195.252)"/>
        </g>
        <g id="그룹_126" transform="translate(1186.259 -211.104)">
            <path id="패스_403" d="M1236.737-175.82h-7.559a.646.646 0 0 1-.646-.646.646.646 0 0 1 .646-.646h7.559a.646.646 0 0 1 .646.646.646.646 0 0 1-.646.646z" class="cls-2" transform="translate(-1228.532 177.113)"/>
        </g>
    </g>
</svg>
