<svg xmlns="http://www.w3.org/2000/svg" width="18" height="17" viewBox="0 0 18 17">
    <defs>
        <style>
            .cls-2{stroke:#93969f;stroke-linejoin:bevel;stroke-width:2px;fill:#fff}.cls-3{fill:#93969f;mix-blend-mode:darken;isolation:isolate}
        </style>
    </defs>
    <g id="img_calendar" transform="translate(1)">
        <path id="사각형_742" fill="none" stroke="#93969f" stroke-linejoin="bevel" stroke-width="2px" d="M0 0H16V13.669H0z" transform="translate(0 2.331)"/>
        <path id="선_28" d="M0 0L0 4" class="cls-2" transform="translate(2.787)"/>
        <path id="선_29" d="M0 0L0 4" class="cls-2" transform="translate(6.238)"/>
        <path id="선_30" d="M0 0L0 4" class="cls-2" transform="translate(9.762)"/>
        <path id="선_31" d="M0 0L0 4" class="cls-2" transform="translate(13.213)"/>
        <circle id="타원_54" cx="1.135" cy="1.135" r="1.135" class="cls-3" transform="translate(2.46 6.203)"/>
        <circle id="타원_55" cx="1.135" cy="1.135" r="1.135" class="cls-3" transform="translate(6.865 6.203)"/>
        <circle id="타원_56" cx="1.135" cy="1.135" r="1.135" class="cls-3" transform="translate(11.271 6.203)"/>
        <circle id="타원_57" cx="1.135" cy="1.135" r="1.135" class="cls-3" transform="translate(2.46 10.529)"/>
        <circle id="타원_58" cx="1.135" cy="1.135" r="1.135" class="cls-3" transform="translate(6.865 10.529)"/>
        <circle id="타원_59" cx="1.135" cy="1.135" r="1.135" class="cls-3" transform="translate(11.271 10.529)"/>
    </g>
</svg>
