<svg xmlns="http://www.w3.org/2000/svg" id="logo" width="136" height="22" viewBox="0 0 136 22">
    <defs>
        <style>
            .cls-1{fill:#fff}
        </style>
    </defs>
    <g id="그룹_7">
        <g id="그룹_6">
            <g id="그룹_1" transform="translate(24.755 13.659)">
                <path id="패스_1" d="M517.4 65.58L515.818 64a10.75 10.75 0 0 1-1.183 3.475l.431.432a1.647 1.647 0 1 0 2.33-2.328z" class="cls-1" transform="translate(-514.635 -64)"/>
            </g>
            <g id="그룹_3" transform="translate(1.322)">
                <g id="그룹_2">
                    <path id="패스_2" d="M503.932 61.657a.227.227 0 0 0 .162-.066.231.231 0 0 0 0-.323l-2.822-2.829a4.466 4.466 0 0 0-.324.33l2.824 2.823a.223.223 0 0 0 .16.065z" class="cls-1" transform="translate(-491.769 -50.899)"/>
                    <path id="패스_3" d="M492.515 56.49a.229.229 0 0 0 0 .458h2.68c.083-.155.168-.308.259-.458z" class="cls-1" transform="translate(-492.287 -51.132)"/>
                    <path id="패스_4" d="M501.173 58.405l-1.819-1.824a.223.223 0 0 0-.174-.091h-3.675c-.091.15-.177.3-.259.458h3.815l1.787 1.787a4.466 4.466 0 0 1 .325-.33z" class="cls-1" transform="translate(-492.338 -51.089)"/>
                    <path id="패스_5" d="M504.909 51.48a10.716 10.716 0 0 0-6.6 2.268h1.226a3.247 3.247 0 0 1 2.5 1.177l2.677 2.71c.066 0 .133-.005.2-.005a4.849 4.849 0 1 1-4.789 4.849v-.073l-1.976-2h-3.9a11.206 11.206 0 0 0-.2 2.074 10.863 10.863 0 1 0 10.863-11z" class="cls-1" transform="translate(-492.318 -51.48)"/>
                </g>
            </g>
            <g id="그룹_4" transform="translate(0 4.004)">
                <path id="패스_6" fill="#fff" fill-rule="evenodd" d="M505.021 60.207l-4.539-4.538a1.634 1.634 0 0 0-1.278-.622h-6.614a1.647 1.647 0 1 0 0 3.294h5.91l4.194 4.194a1.646 1.646 0 0 0 2.329-2.328z" transform="translate(-490.942 -55.047)"/>
            </g>
            <g id="그룹_5" transform="translate(13.911 14.117)"/>
        </g>
    </g>
    <g id="그룹_8" transform="translate(36 4)">
        <path id="패스_8" d="M532.373 66.124c-4.023 0-6.827-2.13-6.827-6.516v-1.78c0-4.386 2.8-6.516 6.827-6.516h.864c3.759 0 6.387 1.654 6.387 5.482h-2.981c0-1.9-1.287-2.793-3.406-2.793h-.864a3.508 3.508 0 0 0-3.848 3.827v1.78a3.507 3.507 0 0 0 3.848 3.828h.864c2.119 0 3.406-.891 3.406-2.794h2.981c0 3.829-2.628 5.482-6.387 5.482z" class="cls-1" transform="translate(-525.546 -51.311)"/>
        <path id="패스_9" d="M553.01 67.807a4.476 4.476 0 0 1-.266-1.342 3.432 3.432 0 0 1-3.28 1.694c-2.629 0-4.8-.815-4.8-3.675v-.265c0-3.038 2.119-3.939 5.628-3.939h.636a10.429 10.429 0 0 0 1.815-.09v-.506c0-1.276-1.04-1.738-2.715-1.738-1.114 0-2.365.593-2.365 1.849h-2.7c0-3.456 2.577-4.425 5.067-4.425 2.629 0 5.417.595 5.417 4.314v5.877a6.78 6.78 0 0 0 .318 2.246zm-.266-5.416a14.4 14.4 0 0 1-2.1.2h-.1l-.422.022c-1.68.088-2.755.616-2.755 1.606v.265c0 .747.582 1.254 2.1 1.254 1.855 0 3.28-1.167 3.28-2.355z" class="cls-1" transform="translate(-529.553 -53.159)"/>
        <path id="패스_10" d="M561.713 67.788V55.855h2.839v1.737a3.268 3.268 0 0 1 3.177-2.222 1.966 1.966 0 0 1 .742.155v3.142a3.49 3.49 0 0 0-.954-.152c-1.851 0-2.965 1.824-2.965 3.713v5.561z" class="cls-1" transform="translate(-533.083 -53.159)"/>
        <path id="패스_11" d="M585.171 67.788v-6.681c0-1.45-.088-2.814-1.6-2.814-1.362 0-1.927 1.385-1.927 3.188v6.307H578.8V60.93c0-1.317-.389-2.637-1.676-2.637s-1.837 1.539-1.837 3.429v6.066h-2.84V55.855h2.84v1.737a2.885 2.885 0 0 1 2.9-2.222 2.783 2.783 0 0 1 2.643 2.375 3.487 3.487 0 0 1 3.69-2.375c2.983 0 3.491 2.705 3.491 4.813v7.6z" class="cls-1" transform="translate(-535.44 -53.159)"/>
        <path id="패스_12" d="M597.2 62.9c.036 1.561 1.146 2.554 2.929 2.554 1.552 0 2.542-.44 2.946-1.828h2.841c-.582 3.543-2.294 4.534-5.787 4.534-3.881 0-5.77-2.376-5.77-5.856v-1.188c0-3.478 1.993-5.746 5.77-5.746s5.768 2.268 5.768 5.746V62.9zm5.859-2.6c-.088-1.3-1.218-2.222-2.93-2.222S597.287 59 597.2 60.3z" class="cls-1" transform="translate(-539.978 -53.159)"/>
        <path id="패스_13" d="M611.749 67.788V55.855h2.841v1.737a3.265 3.265 0 0 1 3.177-2.222 1.965 1.965 0 0 1 .742.155v3.142a3.485 3.485 0 0 0-.954-.152c-1.852 0-2.965 1.824-2.965 3.713v5.561z" class="cls-1" transform="translate(-543.511 -53.159)"/>
        <path id="패스_14" d="M629.733 60.455c0-1.848-1.235-2.376-2.757-2.376s-2.749.945-2.749 3.057v1.255c0 2.114 1.234 3.061 2.749 3.061s2.757-.529 2.757-2.379h2.84c0 3.765-2.294 5.085-5.6 5.085-3.4 0-5.59-1.827-5.59-5.768v-1.254c0-3.938 2.187-5.766 5.59-5.766 3.3 0 5.6 1.321 5.6 5.085z" class="cls-1" transform="translate(-546.072 -53.159)"/>
        <path id="패스_15" d="M640.3 62.9c.033 1.561 1.146 2.554 2.93 2.554 1.552 0 2.541-.44 2.945-1.828h2.838c-.58 3.543-2.294 4.534-5.783 4.534-3.884 0-5.774-2.376-5.774-5.856v-1.188c0-3.478 2-5.746 5.774-5.746s5.77 2.268 5.77 5.746V62.9zm5.856-2.6c-.087-1.3-1.215-2.222-2.926-2.222s-2.841.922-2.93 2.222z" class="cls-1" transform="translate(-549.017 -53.159)"/>
    </g>
</svg>
